<?xml version="1.0" encoding="iso-8859-1"?>
<!-- Generator: Adobe Illustrator 16.0.0, SVG Export Plug-In . SVG Version: 6.00 Build 0)  -->
<!DOCTYPE svg PUBLIC "-//W3C//DTD SVG 1.1//EN" "http://www.w3.org/Graphics/SVG/1.1/DTD/svg11.dtd">
<svg version="1.1" id="Capa_1" xmlns="http://www.w3.org/2000/svg" xmlns:xlink="http://www.w3.org/1999/xlink" x="0px" y="0px"
	 width="612px" height="612px" viewBox="0 0 612 612" style="enable-background:new 0 0 612 612;" xml:space="preserve">
<g>
	<g id="_x38__38_">
		<g>
			<path d="M572.564,277.714c0.535-6.464,1.186-12.928,1.186-19.526C573.75,115.591,453.875,0,306,0
				C158.125,0,38.25,115.591,38.25,258.188c0,6.617,0.65,13.062,1.186,19.526C16.027,290.795,0,315.524,0,344.25V459
				c0,42.247,34.253,76.5,76.5,76.5c0,0,76.577,0.096,76.5,0c40.641-1.798,76.5-35.4,76.5-76.5V344.25
				c0-42.247-34.253-76.5-76.5-76.5c0,0-71.585,0-76.5,0c0-133.684,102.759-229.5,229.5-229.5s230.322,94.994,229.5,229.5
				c-0.02,3.251-76.5,0-76.5,0c-42.247,0-76.5,34.253-76.5,76.5V459c0,41.1,35.859,74.702,76.5,76.5c-0.076,0.115,38.25,0,38.25,0
				v57.375c0,10.557,8.568,19.125,19.125,19.125s19.125-8.568,19.125-19.125V535.5l0,0c42.247,0,76.5-34.253,76.5-76.5V344.25
				C612,315.524,595.974,290.795,572.564,277.714z"/>
		</g>
	</g>
</g>
<g>
</g>
<g>
</g>
<g>
</g>
<g>
</g>
<g>
</g>
<g>
</g>
<g>
</g>
<g>
</g>
<g>
</g>
<g>
</g>
<g>
</g>
<g>
</g>
<g>
</g>
<g>
</g>
<g>
</g>
</svg>
