<?xml version="1.0" encoding="iso-8859-1"?>
<!-- Generator: Adobe Illustrator 16.0.0, SVG Export Plug-In . SVG Version: 6.00 Build 0)  -->
<!DOCTYPE svg PUBLIC "-//W3C//DTD SVG 1.1//EN" "http://www.w3.org/Graphics/SVG/1.1/DTD/svg11.dtd">
<svg version="1.1" id="Capa_1" xmlns="http://www.w3.org/2000/svg" xmlns:xlink="http://www.w3.org/1999/xlink" x="0px" y="0px"
	 width="792.006px" height="792.006px" viewBox="0 0 792.006 792.006" style="enable-background:new 0 0 792.006 792.006;"
	 xml:space="preserve">
<g>
	<g id="_x35__8_">
		<g>
			<path d="M397.449,272.723c-27.388,0-49.581,22.168-49.581,49.506s22.192,49.506,49.581,49.506
				c27.387,0,49.58-22.168,49.58-49.506C447.055,294.891,424.836,272.723,397.449,272.723z M651.758,245.335L426.84,13.713
				c-17.738-18.284-46.512-18.284-64.25,0L137.671,245.335c-12.742,13.112-12.395,22.39-12.024,39.981h-0.347v405.352
				c0,55.963,44.063,101.338,98.394,101.338h344.415c54.355,0,98.395-45.375,98.395-101.338V310.651
				C666.529,281.284,669.498,263.594,651.758,245.335z M397.449,421.242c-54.776,0-99.186-44.335-99.186-99.012
				c0-54.677,44.41-99.012,99.186-99.012c54.775,0,99.186,44.335,99.186,99.012S452.225,421.242,397.449,421.242z"/>
		</g>
	</g>
</g>
<g>
</g>
<g>
</g>
<g>
</g>
<g>
</g>
<g>
</g>
<g>
</g>
<g>
</g>
<g>
</g>
<g>
</g>
<g>
</g>
<g>
</g>
<g>
</g>
<g>
</g>
<g>
</g>
<g>
</g>
</svg>
