<?xml version="1.0" encoding="iso-8859-1"?>
<!-- Generator: Adobe Illustrator 16.0.0, SVG Export Plug-In . SVG Version: 6.00 Build 0)  -->
<!DOCTYPE svg PUBLIC "-//W3C//DTD SVG 1.1//EN" "http://www.w3.org/Graphics/SVG/1.1/DTD/svg11.dtd">
<svg version="1.1" id="Capa_1" xmlns="http://www.w3.org/2000/svg" xmlns:xlink="http://www.w3.org/1999/xlink" x="0px" y="0px"
	 width="792px" height="792px" viewBox="0 0 792 792" style="enable-background:new 0 0 792 792;" xml:space="preserve">
<g>
	<g id="_x38__14_">
		<g>
			<path d="M519.75,0h-247.5c-54.673,0-99,44.327-99,99v24.75h445.5V99C618.75,44.327,574.423,0,519.75,0z M173.25,693
				c0,54.673,44.327,99,99,99h247.5c54.673,0,99-44.327,99-99V544.5h-445.5V693z M396,594c27.349,0,49.5,22.151,49.5,49.5
				S423.349,693,396,693s-49.5-22.151-49.5-49.5S368.651,594,396,594z M173.25,495h445.5V173.25h-445.5V495z"/>
		</g>
	</g>
</g>
<g>
</g>
<g>
</g>
<g>
</g>
<g>
</g>
<g>
</g>
<g>
</g>
<g>
</g>
<g>
</g>
<g>
</g>
<g>
</g>
<g>
</g>
<g>
</g>
<g>
</g>
<g>
</g>
<g>
</g>
</svg>
