<?xml version="1.0" encoding="iso-8859-1"?>
<!-- Generator: Adobe Illustrator 16.0.0, SVG Export Plug-In . SVG Version: 6.00 Build 0)  -->
<!DOCTYPE svg PUBLIC "-//W3C//DTD SVG 1.1//EN" "http://www.w3.org/Graphics/SVG/1.1/DTD/svg11.dtd">
<svg version="1.1" id="Capa_1" xmlns="http://www.w3.org/2000/svg" xmlns:xlink="http://www.w3.org/1999/xlink" x="0px" y="0px"
	 width="612px" height="612px" viewBox="0 0 612 612" style="enable-background:new 0 0 612 612;" xml:space="preserve">
<g>
	<g id="_x35__10_">
		<g>
			<path d="M585.939,0H408c-14.459,0.025-25.475,11.705-25.5,25.5S393.541,51.025,408,51l112.047-0.816l-54.978,52.428
				c18.641,2.244,34.221,14.331,41.08,31.11l54.061-51.586L561,204c-0.025,13.795,11.041,25.525,25.5,25.5s25.475-11.705,25.5-25.5
				V24.862C612.025,11.067,600.397-0.025,585.939,0z M135.329,452.268c-10.175-9.715-10.175-25.448,0-35.139l329.766-314.517
				C463.08,102.357,461.091,102,459,102H51c-28.178,0-51,22.822-51,51v408c0,28.152,22.822,51,51,51h408c28.178,0,51-22.822,51-51
				V153c0-6.834-1.402-13.311-3.825-19.278L172.202,452.268C162.027,461.983,145.503,461.983,135.329,452.268z"/>
		</g>
	</g>
</g>
<g>
</g>
<g>
</g>
<g>
</g>
<g>
</g>
<g>
</g>
<g>
</g>
<g>
</g>
<g>
</g>
<g>
</g>
<g>
</g>
<g>
</g>
<g>
</g>
<g>
</g>
<g>
</g>
<g>
</g>
</svg>
