<?xml version="1.0" encoding="iso-8859-1"?>
<!-- Generator: Adobe Illustrator 16.0.0, SVG Export Plug-In . SVG Version: 6.00 Build 0)  -->
<!DOCTYPE svg PUBLIC "-//W3C//DTD SVG 1.1//EN" "http://www.w3.org/Graphics/SVG/1.1/DTD/svg11.dtd">
<svg version="1.1" id="Capa_1" xmlns="http://www.w3.org/2000/svg" xmlns:xlink="http://www.w3.org/1999/xlink" x="0px" y="0px"
	 width="612px" height="612px" viewBox="0 0 612 612" style="enable-background:new 0 0 612 612;" xml:space="preserve">
<g>
	<g id="_x37__21_">
		<g>
			<path d="M76.5,0C34.253,0,0,34.253,0,76.5v401.625c0,42.247,36.051,63.342,76.5,76.5L286.875,612c0,0,0.21-554.625,0-554.625
				C191.021,31.671,76.5,0,76.5,0z M535.5,0c0,0-110.715,30.485-211.312,57.375h0.938V612
				C432.569,583.332,535.5,554.625,535.5,554.625c39.264-10.155,76.5-34.253,76.5-76.5V76.5C612,34.253,577.747,0,535.5,0z"/>
		</g>
	</g>
</g>
<g>
</g>
<g>
</g>
<g>
</g>
<g>
</g>
<g>
</g>
<g>
</g>
<g>
</g>
<g>
</g>
<g>
</g>
<g>
</g>
<g>
</g>
<g>
</g>
<g>
</g>
<g>
</g>
<g>
</g>
</svg>
