<?xml version="1.0" encoding="iso-8859-1"?>
<!-- Generator: Adobe Illustrator 16.0.0, SVG Export Plug-In . SVG Version: 6.00 Build 0)  -->
<!DOCTYPE svg PUBLIC "-//W3C//DTD SVG 1.1//EN" "http://www.w3.org/Graphics/SVG/1.1/DTD/svg11.dtd">
<svg version="1.1" id="Capa_1" xmlns="http://www.w3.org/2000/svg" xmlns:xlink="http://www.w3.org/1999/xlink" x="0px" y="0px"
	 width="612px" height="612px" viewBox="0 0 612 612" style="enable-background:new 0 0 612 612;" xml:space="preserve">
<g>
	<g id="_x36__14_">
		<g>
			<path d="M497.25,133.875h-382.5C51.37,133.875,0,185.245,0,248.625v114.75c0,63.38,51.37,114.75,114.75,114.75h382.5
				c63.38,0,114.75-51.37,114.75-114.75v-114.75C612,185.245,560.63,133.875,497.25,133.875z M248.625,325.125H191.25V382.5
				c0,10.557-8.568,19.125-19.125,19.125S153,393.057,153,382.5v-57.375H95.625c-10.557,0-19.125-8.568-19.125-19.125
				c0-10.557,8.568-19.125,19.125-19.125H153V229.5c0-10.557,8.568-19.125,19.125-19.125s19.125,8.568,19.125,19.125v57.375h57.375
				c10.557,0,19.125,8.568,19.125,19.125C267.75,316.557,259.182,325.125,248.625,325.125z M372.938,325.125
				c-15.835,0-28.688-12.852-28.688-28.688c0-15.855,12.852-28.688,28.688-28.688c15.837,0,28.688,12.833,28.688,28.688
				C401.625,312.273,388.773,325.125,372.938,325.125z M430.312,401.625c-15.836,0-28.688-12.852-28.688-28.688
				c0-15.837,12.852-28.688,28.688-28.688c15.836,0,28.688,12.834,28.688,28.688C459,388.773,446.148,401.625,430.312,401.625z
				 M449.438,267.75c-15.835,0-28.688-12.852-28.688-28.688s12.852-28.688,28.688-28.688c15.837,0,28.688,12.852,28.688,28.688
				S465.273,267.75,449.438,267.75z M506.812,344.25c-15.836,0-28.688-12.852-28.688-28.688c0-15.836,12.852-28.688,28.688-28.688
				c15.836,0,28.688,12.852,28.688,28.688C535.5,331.398,522.648,344.25,506.812,344.25z"/>
		</g>
	</g>
</g>
<g>
</g>
<g>
</g>
<g>
</g>
<g>
</g>
<g>
</g>
<g>
</g>
<g>
</g>
<g>
</g>
<g>
</g>
<g>
</g>
<g>
</g>
<g>
</g>
<g>
</g>
<g>
</g>
<g>
</g>
</svg>
