<?xml version="1.0" encoding="iso-8859-1"?>
<!-- Generator: Adobe Illustrator 16.0.0, SVG Export Plug-In . SVG Version: 6.00 Build 0)  -->
<!DOCTYPE svg PUBLIC "-//W3C//DTD SVG 1.1//EN" "http://www.w3.org/Graphics/SVG/1.1/DTD/svg11.dtd">
<svg version="1.1" id="Capa_1" xmlns="http://www.w3.org/2000/svg" xmlns:xlink="http://www.w3.org/1999/xlink" x="0px" y="0px"
	 width="612.008px" height="612.008px" viewBox="0 0 612.008 612.008" style="enable-background:new 0 0 612.008 612.008;"
	 xml:space="preserve">
<g>
	<g id="_x39__41_">
		<g>
			<path d="M535.44,95.666H192.267c-5.354-0.325-10.804,1.338-14.916,5.412L5.515,291.156c-4.035,3.997-5.756,9.332-5.488,14.572
				c-0.268,5.239,1.454,10.556,5.488,14.571l171.836,190.079c3.748,3.709,8.624,5.545,13.52,5.603v0.401h344.57
				c42.28,0,76.567-34.248,76.567-76.49V172.175C612.008,129.914,577.721,95.666,535.44,95.666z M433.154,348.906
				c7.477,7.477,7.477,19.582,0,27.039c-7.478,7.478-19.601,7.478-27.078,0l-42.815-42.777l-43.37,43.332
				c-7.534,7.516-19.753,7.516-27.288,0c-7.535-7.534-7.535-19.734,0-27.249l43.37-43.333l-42.815-42.777
				c-7.477-7.477-7.477-19.582,0-27.04c7.477-7.477,19.601-7.477,27.078,0l42.815,42.777l43.981-43.925
				c7.534-7.534,19.754-7.534,27.288,0s7.534,19.734,0,27.25l-43.981,43.925L433.154,348.906z"/>
		</g>
	</g>
</g>
<g>
</g>
<g>
</g>
<g>
</g>
<g>
</g>
<g>
</g>
<g>
</g>
<g>
</g>
<g>
</g>
<g>
</g>
<g>
</g>
<g>
</g>
<g>
</g>
<g>
</g>
<g>
</g>
<g>
</g>
</svg>
