<?xml version="1.0" encoding="iso-8859-1"?>
<!-- Generator: Adobe Illustrator 16.0.0, SVG Export Plug-In . SVG Version: 6.00 Build 0)  -->
<!DOCTYPE svg PUBLIC "-//W3C//DTD SVG 1.1//EN" "http://www.w3.org/Graphics/SVG/1.1/DTD/svg11.dtd">
<svg version="1.1" id="Capa_1" xmlns="http://www.w3.org/2000/svg" xmlns:xlink="http://www.w3.org/1999/xlink" x="0px" y="0px"
	 width="612px" height="612px" viewBox="0 0 612 612" style="enable-background:new 0 0 612 612;" xml:space="preserve">
<g>
	<g id="_x38__8_">
		<g>
			<path d="M306,0C137,0,0,137,0,306s137,306,306,306s306-137,306-306S475,0,306,0z M191.673,496.225l26.837-189.348l35.347,20.409
				l-18.898,93.959l71.918-63.347l35.348,20.407L191.673,496.225z M265.061,316.082c0-16.898,13.714-30.613,30.612-30.613
				s30.613,13.714,30.613,30.613c0,16.897-13.715,30.611-30.613,30.611S265.061,332.979,265.061,316.082z M372.837,325.286
				l-35.347-20.409l18.897-93.959l-71.918,63.347l-35.347-20.408l150.551-117.918L372.837,325.286z"/>
		</g>
	</g>
</g>
<g>
</g>
<g>
</g>
<g>
</g>
<g>
</g>
<g>
</g>
<g>
</g>
<g>
</g>
<g>
</g>
<g>
</g>
<g>
</g>
<g>
</g>
<g>
</g>
<g>
</g>
<g>
</g>
<g>
</g>
</svg>
