<?xml version="1.0" encoding="iso-8859-1"?>
<!-- Generator: Adobe Illustrator 16.0.0, SVG Export Plug-In . SVG Version: 6.00 Build 0)  -->
<!DOCTYPE svg PUBLIC "-//W3C//DTD SVG 1.1//EN" "http://www.w3.org/Graphics/SVG/1.1/DTD/svg11.dtd">
<svg version="1.1" id="Capa_1" xmlns="http://www.w3.org/2000/svg" xmlns:xlink="http://www.w3.org/1999/xlink" x="0px" y="0px"
	 width="612px" height="612px" viewBox="0 0 612 612" style="enable-background:new 0 0 612 612;" xml:space="preserve">
<g>
	<g id="_x31_0_4_">
		<g>
			<path d="M535.5,0h-459C34.253,0,0,34.253,0,76.5v459C0,577.747,34.253,612,76.5,612h459c42.247,0,76.5-34.253,76.5-76.5v-459
				C612,34.253,577.747,0,535.5,0z M431.001,341.936l-108.19,108.19c-4.59,4.59-10.862,6.005-16.811,4.973
				c-5.929,1.052-12.221-0.383-16.811-4.973l-108.19-108.19c-7.478-7.478-7.478-19.584,0-27.042c7.478-7.479,19.584-7.479,27.043,0
				l78.833,78.813V191.25c0-10.557,8.568-19.125,19.125-19.125c10.557,0,19.125,8.568,19.125,19.125v202.457l78.814-78.813
				c7.478-7.479,19.584-7.479,27.042,0C438.44,322.371,438.46,334.458,431.001,341.936z"/>
		</g>
	</g>
</g>
<g>
</g>
<g>
</g>
<g>
</g>
<g>
</g>
<g>
</g>
<g>
</g>
<g>
</g>
<g>
</g>
<g>
</g>
<g>
</g>
<g>
</g>
<g>
</g>
<g>
</g>
<g>
</g>
<g>
</g>
</svg>
