<?xml version="1.0" encoding="iso-8859-1"?>
<!-- Generator: Adobe Illustrator 16.0.0, SVG Export Plug-In . SVG Version: 6.00 Build 0)  -->
<!DOCTYPE svg PUBLIC "-//W3C//DTD SVG 1.1//EN" "http://www.w3.org/Graphics/SVG/1.1/DTD/svg11.dtd">
<svg version="1.1" id="Capa_1" xmlns="http://www.w3.org/2000/svg" xmlns:xlink="http://www.w3.org/1999/xlink" x="0px" y="0px"
	 width="652.801px" height="652.801px" viewBox="0 0 652.801 652.801" style="enable-background:new 0 0 652.801 652.801;"
	 xml:space="preserve">
<g>
	<g id="_x36__22_">
		<g>
			<path d="M20.4,571.199c0,45.064,36.537,81.602,81.6,81.602h448.8c45.063,0,81.6-36.537,81.6-81.602V530.4h-612V571.199z
				 M550.801,0H102C56.937,0,20.4,36.536,20.4,81.6v408h612v-408C632.4,36.536,595.864,0,550.801,0z M442.415,300.002
				L341.599,421.994c-4.264,4.283-9.935,6.1-15.504,5.814c-5.589,0.285-11.24-1.531-15.504-5.814L209.773,300.002
				c-7.997-8.018-7.997-21.033,0-29.05c7.997-8.017,20.971-8.017,28.968,0L306,352.369V102c0-11.261,9.139-20.4,20.4-20.4
				s20.4,9.139,20.4,20.4v249.615l66.646-80.642c7.997-8.017,20.971-8.017,28.968,0S450.412,291.985,442.415,300.002z"/>
		</g>
	</g>
</g>
<g>
</g>
<g>
</g>
<g>
</g>
<g>
</g>
<g>
</g>
<g>
</g>
<g>
</g>
<g>
</g>
<g>
</g>
<g>
</g>
<g>
</g>
<g>
</g>
<g>
</g>
<g>
</g>
<g>
</g>
</svg>
