<?xml version="1.0" encoding="iso-8859-1"?>
<!-- Generator: Adobe Illustrator 16.0.0, SVG Export Plug-In . SVG Version: 6.00 Build 0)  -->
<!DOCTYPE svg PUBLIC "-//W3C//DTD SVG 1.1//EN" "http://www.w3.org/Graphics/SVG/1.1/DTD/svg11.dtd">
<svg version="1.1" id="Capa_1" xmlns="http://www.w3.org/2000/svg" xmlns:xlink="http://www.w3.org/1999/xlink" x="0px" y="0px"
	 width="612px" height="612px" viewBox="0 0 612 612" style="enable-background:new 0 0 612 612;" xml:space="preserve">
<g>
	<g id="_x32__8_">
		<g>
			<path d="M535.5,0h-459C34.253,0,0,34.253,0,76.5v459C0,577.747,34.253,612,76.5,612h459c42.247,0,76.5-34.253,76.5-76.5v-459
				C612,34.253,577.747,0,535.5,0z M196.643,311.374c7.497-7.516,19.661-7.516,27.158,0l63.074,76.347V95.625
				c0-10.557,8.568-19.125,19.125-19.125c10.557,0,19.125,8.568,19.125,19.125v291.369l62.481-75.62
				c7.497-7.516,19.66-7.516,27.157,0c7.497,7.517,7.497,19.718,0,27.234l-94.516,114.387c-3.997,4.016-9.313,5.718-14.535,5.45
				c-5.24,0.268-10.538-1.435-14.535-5.45l-94.516-114.387C189.146,331.092,189.146,318.891,196.643,311.374z M478.125,535.5
				h-344.25c-10.557,0-19.125-8.568-19.125-19.125s8.568-19.125,19.125-19.125h344.25c10.557,0,19.125,8.568,19.125,19.125
				S488.682,535.5,478.125,535.5z"/>
		</g>
	</g>
</g>
<g>
</g>
<g>
</g>
<g>
</g>
<g>
</g>
<g>
</g>
<g>
</g>
<g>
</g>
<g>
</g>
<g>
</g>
<g>
</g>
<g>
</g>
<g>
</g>
<g>
</g>
<g>
</g>
<g>
</g>
</svg>
