<?xml version="1.0" encoding="iso-8859-1"?>
<!-- Generator: Adobe Illustrator 16.0.0, SVG Export Plug-In . SVG Version: 6.00 Build 0)  -->
<!DOCTYPE svg PUBLIC "-//W3C//DTD SVG 1.1//EN" "http://www.w3.org/Graphics/SVG/1.1/DTD/svg11.dtd">
<svg version="1.1" id="Capa_1" xmlns="http://www.w3.org/2000/svg" xmlns:xlink="http://www.w3.org/1999/xlink" x="0px" y="0px"
	 width="612px" height="612px" viewBox="0 0 612 612" style="enable-background:new 0 0 612 612;" xml:space="preserve">
<g>
	<g id="_x38__24_">
		<g>
			<path d="M535.5,76.5h-459C34.253,76.5,0,110.753,0,153v306c0,42.247,34.253,76.5,76.5,76.5h459c42.247,0,76.5-34.253,76.5-76.5
				V153C612,110.753,577.747,76.5,535.5,76.5z M325.125,459h-229.5c-10.557,0-19.125-8.568-19.125-19.125
				s8.568-19.125,19.125-19.125h229.5c10.557,0,19.125,8.568,19.125,19.125S335.682,459,325.125,459z M325.125,382.5h-229.5
				c-10.557,0-19.125-8.568-19.125-19.125s8.568-19.125,19.125-19.125h229.5c10.557,0,19.125,8.568,19.125,19.125
				S335.682,382.5,325.125,382.5z M535.5,267.75c0,21.133-17.117,38.25-38.25,38.25h-76.5c-21.133,0-38.25-17.117-38.25-38.25v-76.5
				c0-21.133,17.117-38.25,38.25-38.25h76.5c21.133,0,38.25,17.136,38.25,38.25V267.75z M478.125,191.25h-38.25
				c-10.557,0-19.125,8.568-19.125,19.125v38.25c0,10.557,8.568,19.125,19.125,19.125h38.25c10.557,0,19.125-8.568,19.125-19.125
				v-38.25C497.25,199.818,488.682,191.25,478.125,191.25z"/>
		</g>
	</g>
</g>
<g>
</g>
<g>
</g>
<g>
</g>
<g>
</g>
<g>
</g>
<g>
</g>
<g>
</g>
<g>
</g>
<g>
</g>
<g>
</g>
<g>
</g>
<g>
</g>
<g>
</g>
<g>
</g>
<g>
</g>
</svg>
