<?xml version="1.0" encoding="iso-8859-1"?>
<!-- Generator: Adobe Illustrator 16.0.0, SVG Export Plug-In . SVG Version: 6.00 Build 0)  -->
<!DOCTYPE svg PUBLIC "-//W3C//DTD SVG 1.1//EN" "http://www.w3.org/Graphics/SVG/1.1/DTD/svg11.dtd">
<svg version="1.1" id="Capa_1" xmlns="http://www.w3.org/2000/svg" xmlns:xlink="http://www.w3.org/1999/xlink" x="0px" y="0px"
	 width="612px" height="612px" viewBox="0 0 612 612" style="enable-background:new 0 0 612 612;" xml:space="preserve">
<g>
	<g id="_x32__1_">
		<g>
			<path d="M210.375,432.225c-25.341,0-45.9,20.541-45.9,45.9c0,25.341,20.559,45.9,45.9,45.9c25.36,0,45.9-20.56,45.9-45.9
				S235.735,432.225,210.375,432.225z M210.375,126.225c-25.341,0-45.9,20.559-45.9,45.9c0,25.36,20.559,45.9,45.9,45.9
				c25.36,0,45.9-20.54,45.9-45.9C256.275,146.784,235.735,126.225,210.375,126.225z M382.5,279.225c-25.359,0-45.9,20.54-45.9,45.9
				c0,25.341,20.541,45.9,45.9,45.9c25.341,0,45.9-20.56,45.9-45.9S407.859,279.225,382.5,279.225z M535.5,0h-459
				C34.253,0,0,34.253,0,76.5v459C0,577.747,34.253,612,76.5,612h459c42.247,0,76.5-34.253,76.5-76.5v-459
				C612,34.253,577.747,0,535.5,0z M497.25,497.25H284.178c-8.53,32.934-38.192,57.375-73.803,57.375s-65.254-24.441-73.784-57.375
				H114.75c-10.557,0-19.125-8.568-19.125-19.125S104.193,459,114.75,459h21.822c8.53-32.934,38.192-57.375,73.784-57.375
				c35.591,0,65.254,24.441,73.803,57.375H497.25c10.557,0,19.125,8.568,19.125,19.125S507.807,497.25,497.25,497.25z
				 M497.25,344.25h-40.946c-8.53,32.934-38.193,57.375-73.804,57.375s-65.255-24.441-73.804-57.375H114.75
				c-10.557,0-19.125-8.568-19.125-19.125S104.193,306,114.75,306h193.946c8.53-32.933,38.193-57.375,73.804-57.375
				s65.255,24.442,73.804,57.375h40.946c10.557,0,19.125,8.568,19.125,19.125S507.807,344.25,497.25,344.25z M497.25,191.25H284.178
				c-8.53,32.933-38.192,57.375-73.803,57.375s-65.254-24.442-73.803-57.375H114.75c-10.557,0-19.125-8.568-19.125-19.125
				S104.193,153,114.75,153h21.822c8.549-32.933,38.192-57.375,73.803-57.375s65.273,24.442,73.803,57.375H497.25
				c10.557,0,19.125,8.568,19.125,19.125S507.807,191.25,497.25,191.25z"/>
		</g>
	</g>
</g>
<g>
</g>
<g>
</g>
<g>
</g>
<g>
</g>
<g>
</g>
<g>
</g>
<g>
</g>
<g>
</g>
<g>
</g>
<g>
</g>
<g>
</g>
<g>
</g>
<g>
</g>
<g>
</g>
<g>
</g>
</svg>
