<?xml version="1.0" encoding="iso-8859-1"?>
<!-- Generator: Adobe Illustrator 16.0.0, SVG Export Plug-In . SVG Version: 6.00 Build 0)  -->
<!DOCTYPE svg PUBLIC "-//W3C//DTD SVG 1.1//EN" "http://www.w3.org/Graphics/SVG/1.1/DTD/svg11.dtd">
<svg version="1.1" id="Capa_1" xmlns="http://www.w3.org/2000/svg" xmlns:xlink="http://www.w3.org/1999/xlink" x="0px" y="0px"
	 width="792px" height="792px" viewBox="0 0 792 792" style="enable-background:new 0 0 792 792;" xml:space="preserve">
<g>
	<g id="_x31__14_">
		<g>
			<path d="M495,0c-13.662,0-24.75,11.088-24.75,24.75v167.434c0,34.823-20.74,64.152-49.5,75.166V24.75
				C420.75,11.088,409.662,0,396,0s-24.75,11.088-24.75,24.75v242.6c-28.784-11.039-49.5-40.343-49.5-75.166V24.75
				C321.75,11.088,310.662,0,297,0s-24.75,11.088-24.75,24.75V198c0,50.688,30.616,93.976,74.25,113.107V742.5
				c0,25.616,19.553,46.456,44.5,49.005c1.609,0.322,3.292,0.495,5,0.495c1.708,0,3.391-0.173,5-0.495
				c24.947-2.549,44.5-23.389,44.5-49.005V311.107c43.635-19.132,74.25-62.419,74.25-113.107V24.75C519.75,11.088,508.662,0,495,0z"
				/>
		</g>
	</g>
</g>
<g>
</g>
<g>
</g>
<g>
</g>
<g>
</g>
<g>
</g>
<g>
</g>
<g>
</g>
<g>
</g>
<g>
</g>
<g>
</g>
<g>
</g>
<g>
</g>
<g>
</g>
<g>
</g>
<g>
</g>
</svg>
