<?xml version="1.0" encoding="iso-8859-1"?>
<!-- Generator: Adobe Illustrator 16.0.0, SVG Export Plug-In . SVG Version: 6.00 Build 0)  -->
<!DOCTYPE svg PUBLIC "-//W3C//DTD SVG 1.1//EN" "http://www.w3.org/Graphics/SVG/1.1/DTD/svg11.dtd">
<svg version="1.1" id="Capa_1" xmlns="http://www.w3.org/2000/svg" xmlns:xlink="http://www.w3.org/1999/xlink" x="0px" y="0px"
	 width="612.191px" height="612.191px" viewBox="0 0 612.191 612.191" style="enable-background:new 0 0 612.191 612.191;"
	 xml:space="preserve">
<g>
	<g id="_x33__10_">
		<g>
			<path d="M242.38,423.599c20.853-1.761,42.088-2.717,63.706-2.717s42.854,0.956,63.706,2.717
				c6.581-34.532,10.924-68.202,12.34-98.372H230.06C231.456,355.396,235.799,389.066,242.38,423.599z M369.792,188.593
				c-20.853,1.76-42.088,2.717-63.706,2.717s-42.854-0.957-63.706-2.717c-6.581,34.531-10.924,68.202-12.339,98.372h152.072
				C380.716,256.795,376.373,223.105,369.792,188.593z M306.086,153.526c16.644,0,35.545-1.339,55.575-3.616
				C348.901,94.564,331.874,40.52,314.867,0.44C311.921,0.363,309.051,0,306.086,0c-2.965,0-5.835,0.363-8.781,0.44
				c-16.969,39.984-33.958,93.837-46.718,149.049C270.024,151.9,288.906,153.526,306.086,153.526z M407.365,183.906
				c6.83,36.789,11.536,72.238,13.048,103.059h191.673c-3.291-52.477-19.877-101.26-46.373-143.253l-26.555,9.336
				C498.582,167.339,454.083,177.517,407.365,183.906z M543.195,112.337C497.95,57.393,434.015,18.347,360.973,5.166
				c13.679,39.658,27.472,89.38,38.473,139.58C448.478,136.939,500.476,124.887,543.195,112.337z M251.199,5.166
				C180.108,18.002,117.55,55.289,72.554,107.937c41.189,13.66,91.408,27.128,140.383,35.871
				C223.918,93.933,237.616,44.575,251.199,5.166z M360.973,607.026c71.091-12.837,133.649-50.124,178.646-102.772
				c-41.189-13.659-91.408-27.108-140.384-35.87C388.254,518.258,374.556,567.616,360.973,607.026z M407.365,428.266
				c46.718,6.409,91.217,16.587,131.793,30.878l26.573,9.336c26.478-41.992,43.083-90.776,46.374-143.253H420.413
				C418.901,356.027,414.195,391.496,407.365,428.266z M306.086,458.665c-17.18,0-36.062,1.626-55.499,4.037
				c12.741,55.192,29.749,109.065,46.718,149.049c2.946,0.077,5.816,0.44,8.781,0.44c2.965,0,5.835-0.363,8.781-0.44
				c16.969-39.983,33.977-93.837,46.718-149.049C342.147,460.291,323.266,458.665,306.086,458.665z M204.807,428.266
				c-6.83-36.788-11.536-72.238-13.047-103.039H0.086c3.291,52.457,19.877,101.261,46.374,143.253l26.554-9.336
				C113.59,444.853,158.089,434.675,204.807,428.266z M72.554,504.254c44.996,52.648,107.535,89.936,178.645,102.772
				c-13.583-39.41-27.281-88.769-38.262-138.643C163.962,477.146,113.743,490.595,72.554,504.254z M204.807,183.906
				c-46.718-6.39-91.217-16.567-131.793-30.858l-26.554-9.336C19.963,185.705,3.376,234.488,0.086,286.965h191.673
				C193.271,256.164,197.977,220.695,204.807,183.906z"/>
		</g>
	</g>
</g>
<g>
</g>
<g>
</g>
<g>
</g>
<g>
</g>
<g>
</g>
<g>
</g>
<g>
</g>
<g>
</g>
<g>
</g>
<g>
</g>
<g>
</g>
<g>
</g>
<g>
</g>
<g>
</g>
<g>
</g>
</svg>
