<?xml version="1.0" encoding="iso-8859-1"?>
<!-- Generator: Adobe Illustrator 16.0.0, SVG Export Plug-In . SVG Version: 6.00 Build 0)  -->
<!DOCTYPE svg PUBLIC "-//W3C//DTD SVG 1.1//EN" "http://www.w3.org/Graphics/SVG/1.1/DTD/svg11.dtd">
<svg version="1.1" id="Capa_1" xmlns="http://www.w3.org/2000/svg" xmlns:xlink="http://www.w3.org/1999/xlink" x="0px" y="0px"
	 width="792px" height="792px" viewBox="0 0 792 792" style="enable-background:new 0 0 792 792;" xml:space="preserve">
<g>
	<g id="_x39__13_">
		<g>
			<path d="M111.375,693c0,54.673,44.327,99,99,99h371.25c54.673,0,99-44.327,99-99v-74.25h-569.25V693z M396,643.5
				c20.493,0,37.125,16.632,37.125,37.125S416.493,717.75,396,717.75s-37.125-16.632-37.125-37.125S375.507,643.5,396,643.5z
				 M111.375,569.25h569.25v-396h-569.25V569.25z M581.625,0h-371.25c-54.673,0-99,44.327-99,99v24.75h569.25V99
				C680.625,44.327,636.298,0,581.625,0z"/>
		</g>
	</g>
</g>
<g>
</g>
<g>
</g>
<g>
</g>
<g>
</g>
<g>
</g>
<g>
</g>
<g>
</g>
<g>
</g>
<g>
</g>
<g>
</g>
<g>
</g>
<g>
</g>
<g>
</g>
<g>
</g>
<g>
</g>
</svg>
