<?xml version="1.0" encoding="iso-8859-1"?>
<!-- Generator: Adobe Illustrator 16.0.0, SVG Export Plug-In . SVG Version: 6.00 Build 0)  -->
<!DOCTYPE svg PUBLIC "-//W3C//DTD SVG 1.1//EN" "http://www.w3.org/Graphics/SVG/1.1/DTD/svg11.dtd">
<svg version="1.1" id="Capa_1" xmlns="http://www.w3.org/2000/svg" xmlns:xlink="http://www.w3.org/1999/xlink" x="0px" y="0px"
	 width="612.006px" height="612.005px" viewBox="0 0 612.006 612.005" style="enable-background:new 0 0 612.006 612.005;"
	 xml:space="preserve">
<g>
	<g id="_x31_0_11_">
		<g>
			<path d="M592.889,19.563c-2.733,0.937-324.993,76.469-324.993,76.469c-10.553,2.581-19.117,8.565-19.117,19.118v267.68
				c-40.165-26.114-104.705-26.076-162.305,4.55C13.79,426.035-19.627,498.107,11.84,548.328
				c31.467,50.221,115.927,59.588,188.611,20.934c46.856-24.91,79.203-72.13,86.562-110.001c1.281-2.581,0-329.486,0-329.486
				L573.771,62.31v244.07c-40.165-26.114-104.705-26.095-162.306,4.551c-72.684,38.674-106.1,110.727-74.634,160.947
				c31.468,50.222,115.908,59.589,188.611,20.934c46.856-24.929,79.202-72.129,86.562-110c0-7.074,0-344.111,0-344.111
				C612.006,28.109,603.461,15.97,592.889,19.563z"/>
		</g>
	</g>
</g>
<g>
</g>
<g>
</g>
<g>
</g>
<g>
</g>
<g>
</g>
<g>
</g>
<g>
</g>
<g>
</g>
<g>
</g>
<g>
</g>
<g>
</g>
<g>
</g>
<g>
</g>
<g>
</g>
<g>
</g>
</svg>
