<?xml version="1.0" encoding="iso-8859-1"?>
<!-- Generator: Adobe Illustrator 16.0.0, SVG Export Plug-In . SVG Version: 6.00 Build 0)  -->
<!DOCTYPE svg PUBLIC "-//W3C//DTD SVG 1.1//EN" "http://www.w3.org/Graphics/SVG/1.1/DTD/svg11.dtd">
<svg version="1.1" id="Capa_1" xmlns="http://www.w3.org/2000/svg" xmlns:xlink="http://www.w3.org/1999/xlink" x="0px" y="0px"
	 width="792px" height="792px" viewBox="0 0 792 792" style="enable-background:new 0 0 792 792;" xml:space="preserve">
<g>
	<g id="_x31__37_">
		<g>
			<path d="M396,297.198c41.109,0,74.448-33.313,74.448-74.448c0-41.11-33.313-74.448-74.448-74.448
				c-41.11,0-74.448,33.338-74.448,74.448C321.552,263.86,354.89,297.198,396,297.198z M396,445.5
				c-68.335,0-123.75,55.415-123.75,123.75C272.25,637.609,327.665,693,396,693s123.75-55.415,123.75-123.75
				S464.335,445.5,396,445.5z M594,0H198c-54.673,0-99,44.327-99,99v594c0,54.673,44.327,99,99,99h396c54.673,0,99-44.327,99-99V99
				C693,44.327,648.673,0,594,0z M396,99c68.335,0,123.75,55.415,123.75,123.75c0,68.359-55.415,123.75-123.75,123.75
				s-123.75-55.415-123.75-123.75S327.665,99,396,99z M396,742.5c-95.684,0-173.25-77.566-173.25-173.25S300.316,396,396,396
				s173.25,77.566,173.25,173.25S491.684,742.5,396,742.5z"/>
		</g>
	</g>
</g>
<g>
</g>
<g>
</g>
<g>
</g>
<g>
</g>
<g>
</g>
<g>
</g>
<g>
</g>
<g>
</g>
<g>
</g>
<g>
</g>
<g>
</g>
<g>
</g>
<g>
</g>
<g>
</g>
<g>
</g>
</svg>
