<?xml version="1.0" encoding="iso-8859-1"?>
<!-- Generator: Adobe Illustrator 16.0.0, SVG Export Plug-In . SVG Version: 6.00 Build 0)  -->
<!DOCTYPE svg PUBLIC "-//W3C//DTD SVG 1.1//EN" "http://www.w3.org/Graphics/SVG/1.1/DTD/svg11.dtd">
<svg version="1.1" id="Capa_1" xmlns="http://www.w3.org/2000/svg" xmlns:xlink="http://www.w3.org/1999/xlink" x="0px" y="0px"
	 width="612px" height="612px" viewBox="0 0 612 612" style="enable-background:new 0 0 612 612;" xml:space="preserve">
<g>
	<g id="_x31_0_13_">
		<g>
			<path d="M306,114.75c-105.627,0-191.25,85.623-191.25,191.25c0,105.627,85.623,191.25,191.25,191.25
				c105.627,0,191.25-85.623,191.25-191.25C497.25,200.373,411.627,114.75,306,114.75z M306,420.75
				c-63.38,0-114.75-51.37-114.75-114.75c0-63.38,51.37-114.75,114.75-114.75c63.38,0,114.75,51.37,114.75,114.75
				C420.75,369.38,369.38,420.75,306,420.75z M535.5,0h-459C34.253,0,0,34.253,0,76.5v459C0,577.747,34.253,612,76.5,612h459
				c42.247,0,76.5-34.253,76.5-76.5v-459C612,34.253,577.747,0,535.5,0z M95.625,76.5c10.557,0,19.125,8.568,19.125,19.125
				s-8.568,19.125-19.125,19.125S76.5,106.182,76.5,95.625S85.068,76.5,95.625,76.5z M95.625,535.5
				c-10.557,0-19.125-8.568-19.125-19.125s8.568-19.125,19.125-19.125s19.125,8.568,19.125,19.125S106.182,535.5,95.625,535.5z
				 M516.375,535.5c-10.557,0-19.125-8.568-19.125-19.125s8.568-19.125,19.125-19.125s19.125,8.568,19.125,19.125
				S526.932,535.5,516.375,535.5z M306,535.5C179.259,535.5,76.5,432.741,76.5,306S179.259,76.5,306,76.5S535.5,179.259,535.5,306
				S432.741,535.5,306,535.5z M516.375,114.75c-10.557,0-19.125-8.568-19.125-19.125S505.818,76.5,516.375,76.5
				S535.5,85.068,535.5,95.625S526.932,114.75,516.375,114.75z M306,229.5c-42.247,0-76.5,34.253-76.5,76.5s34.253,76.5,76.5,76.5
				s76.5-34.253,76.5-76.5S348.247,229.5,306,229.5z"/>
		</g>
	</g>
</g>
<g>
</g>
<g>
</g>
<g>
</g>
<g>
</g>
<g>
</g>
<g>
</g>
<g>
</g>
<g>
</g>
<g>
</g>
<g>
</g>
<g>
</g>
<g>
</g>
<g>
</g>
<g>
</g>
<g>
</g>
</svg>
