<?xml version="1.0" encoding="iso-8859-1"?>
<!-- Generator: Adobe Illustrator 16.0.0, SVG Export Plug-In . SVG Version: 6.00 Build 0)  -->
<!DOCTYPE svg PUBLIC "-//W3C//DTD SVG 1.1//EN" "http://www.w3.org/Graphics/SVG/1.1/DTD/svg11.dtd">
<svg version="1.1" id="Capa_1" xmlns="http://www.w3.org/2000/svg" xmlns:xlink="http://www.w3.org/1999/xlink" x="0px" y="0px"
	 width="792px" height="792px" viewBox="0 0 792 792" style="enable-background:new 0 0 792 792;" xml:space="preserve">
<g>
	<g id="_x34__36_">
		<g>
			<path d="M569.25,49.5V0h-49.5v49.5h-99V0h-49.5v49.5h-99V0h-49.5v49.5c-54.673,0-99,44.327-99,99V693c0,54.673,44.327,99,99,99
				h346.5c54.673,0,99-44.327,99-99V148.5C668.25,93.827,623.923,49.5,569.25,49.5z M544.5,594h-297
				c-13.662,0-24.75-11.088-24.75-24.75s11.088-24.75,24.75-24.75h297c13.662,0,24.75,11.088,24.75,24.75S558.162,594,544.5,594z
				 M544.5,445.5h-297c-13.662,0-24.75-11.088-24.75-24.75S233.838,396,247.5,396h297c13.662,0,24.75,11.088,24.75,24.75
				S558.162,445.5,544.5,445.5z M544.5,297h-297c-13.662,0-24.75-11.088-24.75-24.75s11.088-24.75,24.75-24.75h297
				c13.662,0,24.75,11.088,24.75,24.75S558.162,297,544.5,297z"/>
		</g>
	</g>
</g>
<g>
</g>
<g>
</g>
<g>
</g>
<g>
</g>
<g>
</g>
<g>
</g>
<g>
</g>
<g>
</g>
<g>
</g>
<g>
</g>
<g>
</g>
<g>
</g>
<g>
</g>
<g>
</g>
<g>
</g>
</svg>
