<?xml version="1.0" encoding="iso-8859-1"?>
<!-- Generator: Adobe Illustrator 16.0.0, SVG Export Plug-In . SVG Version: 6.00 Build 0)  -->
<!DOCTYPE svg PUBLIC "-//W3C//DTD SVG 1.1//EN" "http://www.w3.org/Graphics/SVG/1.1/DTD/svg11.dtd">
<svg version="1.1" id="Capa_1" xmlns="http://www.w3.org/2000/svg" xmlns:xlink="http://www.w3.org/1999/xlink" x="0px" y="0px"
	 width="612px" height="612px" viewBox="0 0 612 612" style="enable-background:new 0 0 612 612;" xml:space="preserve">
<g>
	<g id="_x33__28_">
		<g>
			<path d="M306,0C137.012,0,0,119.875,0,267.75c0,84.514,44.848,159.751,114.75,208.826V612l134.047-81.339
				c18.552,3.061,37.638,4.839,57.203,4.839c169.008,0,306-119.875,306-267.75C612,119.875,475.008,0,306,0z M153,306
				c-21.133,0-38.25-17.117-38.25-38.25S131.867,229.5,153,229.5c21.114,0,38.25,17.117,38.25,38.25S174.133,306,153,306z M306,306
				c-21.133,0-38.25-17.117-38.25-38.25S284.867,229.5,306,229.5c21.114,0,38.25,17.117,38.25,38.25S327.133,306,306,306z M459,306
				c-21.133,0-38.25-17.117-38.25-38.25S437.867,229.5,459,229.5s38.25,17.117,38.25,38.25S480.133,306,459,306z"/>
		</g>
	</g>
</g>
<g>
</g>
<g>
</g>
<g>
</g>
<g>
</g>
<g>
</g>
<g>
</g>
<g>
</g>
<g>
</g>
<g>
</g>
<g>
</g>
<g>
</g>
<g>
</g>
<g>
</g>
<g>
</g>
<g>
</g>
</svg>
