<?xml version="1.0" encoding="iso-8859-1"?>
<!-- Generator: Adobe Illustrator 16.0.0, SVG Export Plug-In . SVG Version: 6.00 Build 0)  -->
<!DOCTYPE svg PUBLIC "-//W3C//DTD SVG 1.1//EN" "http://www.w3.org/Graphics/SVG/1.1/DTD/svg11.dtd">
<svg version="1.1" id="Capa_1" xmlns="http://www.w3.org/2000/svg" xmlns:xlink="http://www.w3.org/1999/xlink" x="0px" y="0px"
	 width="612.009px" height="612.01px" viewBox="0 0 612.009 612.01" style="enable-background:new 0 0 612.009 612.01;"
	 xml:space="preserve">
<g>
	<g id="_x35__42_">
		<g>
			<path d="M606.192,578.714L448.18,423.228c41.377-44.955,66.801-104.41,66.801-169.834C514.981,113.439,399.705,0,257.494,0
				C115.283,0,0.007,113.439,0.007,253.393s115.276,253.393,257.487,253.393c61.445,0,117.801-21.253,162.068-56.586
				l158.624,156.099c7.729,7.614,20.277,7.614,28.006,0C613.939,598.686,613.939,586.328,606.192,578.714z M354.252,275.679H277.81
				v76.557c0,10.579-8.551,19.149-19.111,19.149s-19.11-8.57-19.11-19.149v-76.557h-76.424c-10.56,0-19.11-13.659-19.11-24.237
				s8.551-14.061,19.11-14.061h76.443v-76.557c0-10.56,8.551-19.149,19.11-19.149c10.56,0,19.111,8.57,19.111,19.149V237.4h76.443
				c10.56,0,19.11,8.57,19.11,19.149C373.363,267.109,364.812,275.679,354.252,275.679z"/>
		</g>
	</g>
</g>
<g>
</g>
<g>
</g>
<g>
</g>
<g>
</g>
<g>
</g>
<g>
</g>
<g>
</g>
<g>
</g>
<g>
</g>
<g>
</g>
<g>
</g>
<g>
</g>
<g>
</g>
<g>
</g>
<g>
</g>
</svg>
