<?xml version="1.0" encoding="iso-8859-1"?>
<!-- Generator: Adobe Illustrator 16.0.0, SVG Export Plug-In . SVG Version: 6.00 Build 0)  -->
<!DOCTYPE svg PUBLIC "-//W3C//DTD SVG 1.1//EN" "http://www.w3.org/Graphics/SVG/1.1/DTD/svg11.dtd">
<svg version="1.1" id="Capa_1" xmlns="http://www.w3.org/2000/svg" xmlns:xlink="http://www.w3.org/1999/xlink" x="0px" y="0px"
	 width="612px" height="612px" viewBox="0 0 612 612" style="enable-background:new 0 0 612 612;" xml:space="preserve">
<g>
	<g id="_x31__8_">
		<g>
			<path d="M535.5,325.125h-459c-42.247,0-76.5,34.253-76.5,76.5v38.25c0,42.247,34.253,76.5,76.5,76.5h38.25
				c8.53,32.934,40.889,57.375,76.5,57.375h229.5c35.61,0,67.971-24.441,76.5-57.375h38.25c42.247,0,76.5-34.253,76.5-76.5v-38.25
				C612,359.378,577.747,325.125,535.5,325.125z M573.75,439.875c0,21.133-17.117,38.25-38.25,38.25h-38.25
				c-8.529-32.934-40.89-57.375-76.5-57.375h-229.5c-35.611,0-67.97,24.441-76.5,57.375H76.5c-21.133,0-38.25-17.136-38.25-38.25
				v-38.25c0-21.133,17.117-38.25,38.25-38.25h459c21.133,0,38.25,17.117,38.25,38.25V439.875z M497.25,114.75
				c0-42.247-34.253-76.5-76.5-76.5h-229.5c-42.247,0-76.5,34.253-76.5,76.5v172.125h382.5V114.75z"/>
		</g>
	</g>
</g>
<g>
</g>
<g>
</g>
<g>
</g>
<g>
</g>
<g>
</g>
<g>
</g>
<g>
</g>
<g>
</g>
<g>
</g>
<g>
</g>
<g>
</g>
<g>
</g>
<g>
</g>
<g>
</g>
<g>
</g>
</svg>
