<?xml version="1.0" encoding="iso-8859-1"?>
<!-- Generator: Adobe Illustrator 16.0.0, SVG Export Plug-In . SVG Version: 6.00 Build 0)  -->
<!DOCTYPE svg PUBLIC "-//W3C//DTD SVG 1.1//EN" "http://www.w3.org/Graphics/SVG/1.1/DTD/svg11.dtd">
<svg version="1.1" id="Capa_1" xmlns="http://www.w3.org/2000/svg" xmlns:xlink="http://www.w3.org/1999/xlink" x="0px" y="0px"
	 width="611.998px" height="611.998px" viewBox="0 0 611.998 611.998" style="enable-background:new 0 0 611.998 611.998;"
	 xml:space="preserve">
<g>
	<g id="_x39__28_">
		<g>
			<path d="M344.207,535.471c0,42.241,34.248,76.49,76.49,76.49s76.49-34.249,76.49-76.49c0-42.242-34.248-76.491-76.49-76.491
				S344.207,493.229,344.207,535.471z M420.697,497.226c21.131,0,38.245,17.114,38.245,38.245c0,21.13-17.114,38.245-38.245,38.245
				s-38.245-17.134-38.245-38.245S399.566,497.226,420.697,497.226z M114.736,535.471c0,42.241,34.249,76.49,76.49,76.49
				s76.49-34.249,76.49-76.49c0-42.242-34.249-76.491-76.49-76.491S114.736,493.229,114.736,535.471z M191.226,497.226
				c21.13,0,38.245,17.114,38.245,38.245c0,21.13-17.115,38.245-38.245,38.245s-38.245-17.134-38.245-38.245
				S170.096,497.226,191.226,497.226z M152.981,420.734c-21.13,0-38.245-17.114-38.245-38.245c0,0,439.82-38.245,439.265-36.391
				c9.771-36.256,57.502-246.203,57.923-250.448c1.014-10.518-8.567-19.123-19.123-19.123H114.736V38.283h19.123
				c10.556,0,19.123-8.567,19.123-19.123s-8.567-19.123-19.123-19.123H19.123C8.567,0.037,0,8.604,0,19.16
				s8.567,19.123,19.123,19.123H76.49v344.207c0,42.242,34.249,76.49,76.491,76.49h38.245h229.471h172.104
				c0.593,0,0-18.969,0-38.245H152.981z"/>
		</g>
	</g>
</g>
<g>
</g>
<g>
</g>
<g>
</g>
<g>
</g>
<g>
</g>
<g>
</g>
<g>
</g>
<g>
</g>
<g>
</g>
<g>
</g>
<g>
</g>
<g>
</g>
<g>
</g>
<g>
</g>
<g>
</g>
</svg>
