<?xml version="1.0" encoding="iso-8859-1"?>
<!-- Generator: Adobe Illustrator 16.0.0, SVG Export Plug-In . SVG Version: 6.00 Build 0)  -->
<!DOCTYPE svg PUBLIC "-//W3C//DTD SVG 1.1//EN" "http://www.w3.org/Graphics/SVG/1.1/DTD/svg11.dtd">
<svg version="1.1" id="Capa_1" xmlns="http://www.w3.org/2000/svg" xmlns:xlink="http://www.w3.org/1999/xlink" x="0px" y="0px"
	 width="612px" height="612px" viewBox="0 0 612 612" style="enable-background:new 0 0 612 612;" xml:space="preserve">
<g>
	<g id="_x33__27_">
		<g>
			<path d="M342.72,12.24L171.36,126.488v359.048L342.72,599.76c27.051,0,48.96-21.934,48.96-48.96V61.2
				C391.68,34.174,369.771,12.24,342.72,12.24z M0,208.08v195.84c0,27.051,21.91,48.96,48.96,48.96h73.44V159.12H48.96
				C21.91,159.12,0,181.03,0,208.08z M465.12,137.112v48.96c55.863,11.334,97.92,60.71,97.92,119.928
				c0,59.217-42.057,108.594-97.92,119.928v48.96C548.059,462.917,612,392.243,612,306C612,219.732,548.059,149.083,465.12,137.112z
				"/>
		</g>
	</g>
</g>
<g>
</g>
<g>
</g>
<g>
</g>
<g>
</g>
<g>
</g>
<g>
</g>
<g>
</g>
<g>
</g>
<g>
</g>
<g>
</g>
<g>
</g>
<g>
</g>
<g>
</g>
<g>
</g>
<g>
</g>
</svg>
