<?xml version="1.0" encoding="iso-8859-1"?>
<!-- Generator: Adobe Illustrator 16.0.0, SVG Export Plug-In . SVG Version: 6.00 Build 0)  -->
<!DOCTYPE svg PUBLIC "-//W3C//DTD SVG 1.1//EN" "http://www.w3.org/Graphics/SVG/1.1/DTD/svg11.dtd">
<svg version="1.1" id="Capa_1" xmlns="http://www.w3.org/2000/svg" xmlns:xlink="http://www.w3.org/1999/xlink" x="0px" y="0px"
	 width="706.154px" height="706.154px" viewBox="0 0 706.154 706.154" style="enable-background:new 0 0 706.154 706.154;"
	 xml:space="preserve">
<g>
	<g id="_x39__35_">
		<g>
			<path d="M376.38,95.331c0.023-0.4,0.235-48.254,0.235-48.254h94.154c12.993,0,23.538-10.545,23.538-23.539S483.763,0,470.77,0
				H235.385c-12.993,0-23.539,10.545-23.539,23.539s10.545,23.539,23.539,23.539h94.154v47.077c0,0.423,0.212,0.776,0.235,1.177
				C171.69,107.289,47.077,239.033,47.077,400.154c0,169.006,136.994,306,306,306c169.006,0,306-136.994,306-306
				C659.077,239.033,534.465,107.289,376.38,95.331z M353.077,470.77c-39.003,0-70.615-31.612-70.615-70.615
				c0-30.694,19.702-56.563,47.077-66.285V211.847c0-12.994,10.545-23.539,23.539-23.539s23.538,10.545,23.538,23.539V333.87
				c27.376,9.722,47.077,35.59,47.077,66.285C423.692,439.157,392.08,470.77,353.077,470.77z"/>
		</g>
	</g>
</g>
<g>
</g>
<g>
</g>
<g>
</g>
<g>
</g>
<g>
</g>
<g>
</g>
<g>
</g>
<g>
</g>
<g>
</g>
<g>
</g>
<g>
</g>
<g>
</g>
<g>
</g>
<g>
</g>
<g>
</g>
</svg>
