<?xml version="1.0" encoding="iso-8859-1"?>
<!-- Generator: Adobe Illustrator 16.0.0, SVG Export Plug-In . SVG Version: 6.00 Build 0)  -->
<!DOCTYPE svg PUBLIC "-//W3C//DTD SVG 1.1//EN" "http://www.w3.org/Graphics/SVG/1.1/DTD/svg11.dtd">
<svg version="1.1" id="Capa_1" xmlns="http://www.w3.org/2000/svg" xmlns:xlink="http://www.w3.org/1999/xlink" x="0px" y="0px"
	 width="612px" height="612px" viewBox="0 0 612 612" style="enable-background:new 0 0 612 612;" xml:space="preserve">
<g>
	<g id="_x33__7_">
		<g>
			<path d="M550.8,273.646l28.846-28.846c7.977-7.976,7.977-20.89,0-28.845c-7.977-7.977-20.89-7.977-28.846,0L521.954,244.8
				c-7.977,7.977-7.977,20.89,0,28.846S542.844,281.622,550.8,273.646z M306,183.6c11.261,0,20.4-9.139,20.4-20.4v-40.8
				c0-11.261-9.14-20.4-20.4-20.4s-20.4,9.139-20.4,20.4v40.8C285.6,174.461,294.739,183.6,306,183.6z M550.8,428.4
				c-15.688-115.077-120.441-204-244.8-204s-229.112,88.923-244.8,204H550.8z M591.6,469.2H20.4C9.139,469.2,0,478.339,0,489.6
				S9.139,510,20.4,510h571.2c11.261,0,20.4-9.14,20.4-20.4S602.86,469.2,591.6,469.2z M61.2,273.646
				c7.976,7.977,20.89,7.977,28.845,0c7.956-7.977,7.977-20.89,0-28.846L61.2,215.955c-7.977-7.977-20.89-7.977-28.846,0
				c-7.977,7.956-7.977,20.869,0,28.845L61.2,273.646z"/>
		</g>
	</g>
</g>
<g>
</g>
<g>
</g>
<g>
</g>
<g>
</g>
<g>
</g>
<g>
</g>
<g>
</g>
<g>
</g>
<g>
</g>
<g>
</g>
<g>
</g>
<g>
</g>
<g>
</g>
<g>
</g>
<g>
</g>
</svg>
