<?xml version="1.0" encoding="iso-8859-1"?>
<!-- Generator: Adobe Illustrator 16.0.0, SVG Export Plug-In . SVG Version: 6.00 Build 0)  -->
<!DOCTYPE svg PUBLIC "-//W3C//DTD SVG 1.1//EN" "http://www.w3.org/Graphics/SVG/1.1/DTD/svg11.dtd">
<svg version="1.1" id="Capa_1" xmlns="http://www.w3.org/2000/svg" xmlns:xlink="http://www.w3.org/1999/xlink" x="0px" y="0px"
	 width="612px" height="612px" viewBox="0 0 612 612" style="enable-background:new 0 0 612 612;" xml:space="preserve">
<g>
	<g id="_x33__15_">
		<g>
			<path d="M459,0L306,114.75L153,57.375L0,153v459l153-95.625l153,57.375L459,459l153,114.75v-459L459,0z M191.25,401.625
				c0,10.557-8.568,19.125-19.125,19.125S153,412.182,153,401.625v-191.25c0-10.557,8.568-19.125,19.125-19.125
				s19.125,8.568,19.125,19.125V401.625z M344.25,382.5c0,10.557-8.568,19.125-19.125,19.125S306,393.057,306,382.5V267.75
				c0-10.557,8.568-19.125,19.125-19.125s19.125,8.568,19.125,19.125V382.5z M497.25,325.125c0,10.557-8.568,19.125-19.125,19.125
				S459,335.682,459,325.125v-153c0-10.557,8.568-19.125,19.125-19.125s19.125,8.568,19.125,19.125V325.125z"/>
		</g>
	</g>
</g>
<g>
</g>
<g>
</g>
<g>
</g>
<g>
</g>
<g>
</g>
<g>
</g>
<g>
</g>
<g>
</g>
<g>
</g>
<g>
</g>
<g>
</g>
<g>
</g>
<g>
</g>
<g>
</g>
<g>
</g>
</svg>
