<?xml version="1.0" encoding="iso-8859-1"?>
<!-- Generator: Adobe Illustrator 16.0.0, SVG Export Plug-In . SVG Version: 6.00 Build 0)  -->
<!DOCTYPE svg PUBLIC "-//W3C//DTD SVG 1.1//EN" "http://www.w3.org/Graphics/SVG/1.1/DTD/svg11.dtd">
<svg version="1.1" id="Capa_1" xmlns="http://www.w3.org/2000/svg" xmlns:xlink="http://www.w3.org/1999/xlink" x="0px" y="0px"
	 width="612px" height="612px" viewBox="0 0 612 612" style="enable-background:new 0 0 612 612;" xml:space="preserve">
<g>
	<g id="_x38__15_">
		<g>
			<path d="M20.4,0C9.139,0,0,9.139,0,20.4v571.2C0,602.86,9.139,612,20.4,612s20.4-9.14,20.4-20.4V20.4C40.8,9.139,31.661,0,20.4,0
				z M81.6,40.8v224.4c0,22.521,18.258,40.8,40.8,40.8l163.2-14.831V14.831L122.4,0C99.858,0,81.6,18.278,81.6,40.8z M571.2,40.8
				L489.6,33.375v239.23L571.2,265.2c22.542,0,40.8-18.258,40.8-40.8V81.6C612,59.058,593.742,40.8,571.2,40.8z M326.4,287.457
				L448.8,276.338V29.682L326.4,18.543V287.457z"/>
		</g>
	</g>
</g>
<g>
</g>
<g>
</g>
<g>
</g>
<g>
</g>
<g>
</g>
<g>
</g>
<g>
</g>
<g>
</g>
<g>
</g>
<g>
</g>
<g>
</g>
<g>
</g>
<g>
</g>
<g>
</g>
<g>
</g>
</svg>
