<?xml version="1.0" encoding="iso-8859-1"?>
<!-- Generator: Adobe Illustrator 16.0.0, SVG Export Plug-In . SVG Version: 6.00 Build 0)  -->
<!DOCTYPE svg PUBLIC "-//W3C//DTD SVG 1.1//EN" "http://www.w3.org/Graphics/SVG/1.1/DTD/svg11.dtd">
<svg version="1.1" id="Capa_1" xmlns="http://www.w3.org/2000/svg" xmlns:xlink="http://www.w3.org/1999/xlink" x="0px" y="0px"
	 width="699.428px" height="699.428px" viewBox="0 0 699.428 699.428" style="enable-background:new 0 0 699.428 699.428;"
	 xml:space="preserve">
<g>
	<g id="_x37__27_">
		<g>
			<path d="M568.285,0H131.143C82.86,0,43.714,39.146,43.714,87.429v611.999h40.807l90.336-65.57l87.428,65.57l87.429-65.57
				l87.429,65.57l87.429-65.57l90.335,65.57h40.808V87.429C655.714,39.146,616.567,0,568.285,0z M502.714,437.143h-306
				c-12.065,0-21.857-9.791-21.857-21.857c0-12.064,9.792-21.857,21.857-21.857h306c12.065,0,21.857,9.793,21.857,21.857
				C524.571,427.352,514.779,437.143,502.714,437.143z M502.714,305.498h-306c-12.065,0-21.857-9.792-21.857-21.857
				c0-12.065,9.792-21.857,21.857-21.857h306c12.065,0,21.857,9.792,21.857,21.857C524.571,295.706,514.779,305.498,502.714,305.498
				z M502.714,174.857h-306c-12.065,0-21.857-9.792-21.857-21.857s9.792-21.857,21.857-21.857h306
				c12.065,0,21.857,9.792,21.857,21.857S514.779,174.857,502.714,174.857z"/>
		</g>
	</g>
</g>
<g>
</g>
<g>
</g>
<g>
</g>
<g>
</g>
<g>
</g>
<g>
</g>
<g>
</g>
<g>
</g>
<g>
</g>
<g>
</g>
<g>
</g>
<g>
</g>
<g>
</g>
<g>
</g>
<g>
</g>
</svg>
