<?xml version="1.0" encoding="iso-8859-1"?>
<!-- Generator: Adobe Illustrator 16.0.0, SVG Export Plug-In . SVG Version: 6.00 Build 0)  -->
<!DOCTYPE svg PUBLIC "-//W3C//DTD SVG 1.1//EN" "http://www.w3.org/Graphics/SVG/1.1/DTD/svg11.dtd">
<svg version="1.1" id="Capa_1" xmlns="http://www.w3.org/2000/svg" xmlns:xlink="http://www.w3.org/1999/xlink" x="0px" y="0px"
	 width="612px" height="612px" viewBox="0 0 612 612" style="enable-background:new 0 0 612 612;" xml:space="preserve">
<g>
	<g id="_x32__18_">
		<g>
			<path d="M306,0C137.012,0,0,119.875,0,267.75c0,84.514,44.848,159.751,114.75,208.826V612l134.047-81.339
				c18.552,3.061,37.638,4.839,57.203,4.839c169.008,0,306-119.875,306-267.75C612,119.875,475.008,0,306,0z M401.625,363.375
				h-191.25c-10.557,0-19.125-8.568-19.125-19.125s8.568-19.125,19.125-19.125h191.25c10.557,0,19.125,8.568,19.125,19.125
				S412.182,363.375,401.625,363.375z M439.875,248.625h-267.75c-10.557,0-19.125-8.568-19.125-19.125s8.568-19.125,19.125-19.125
				h267.75c10.557,0,19.125,8.568,19.125,19.125S450.432,248.625,439.875,248.625z"/>
		</g>
	</g>
</g>
<g>
</g>
<g>
</g>
<g>
</g>
<g>
</g>
<g>
</g>
<g>
</g>
<g>
</g>
<g>
</g>
<g>
</g>
<g>
</g>
<g>
</g>
<g>
</g>
<g>
</g>
<g>
</g>
<g>
</g>
</svg>
