<?xml version="1.0" encoding="iso-8859-1"?>
<!-- Generator: Adobe Illustrator 16.0.0, SVG Export Plug-In . SVG Version: 6.00 Build 0)  -->
<!DOCTYPE svg PUBLIC "-//W3C//DTD SVG 1.1//EN" "http://www.w3.org/Graphics/SVG/1.1/DTD/svg11.dtd">
<svg version="1.1" id="Capa_1" xmlns="http://www.w3.org/2000/svg" xmlns:xlink="http://www.w3.org/1999/xlink" x="0px" y="0px"
	 width="612px" height="612px" viewBox="0 0 612 612" style="enable-background:new 0 0 612 612;" xml:space="preserve">
<g>
	<g id="_x37__28_">
		<g>
			<path d="M306,0C136.992,0,0,137.012,0,306c0,169.008,136.992,306,306,306s306-137.012,306-306S475.008,0,306,0z M158.317,132.135
				l27.042,27.042l-27.042,27.043l-27.043-27.043L158.317,132.135z M155.238,463.188l-26.469-26.526l26.469-26.526l26.469,26.526
				L155.238,463.188z M325.125,535.5h-38.25v-38.25h38.25V535.5z M325.125,306.459c0,10.557-8.568,19.125-19.125,19.125H133.875
				c-10.557,0-19.125-8.568-19.125-19.125c0-10.557,8.568-19.125,19.125-19.125h153V95.625c0-10.557,8.568-19.125,19.125-19.125
				c10.557,0,19.125,8.568,19.125,19.125V306.459z M443.662,462.691l-27.043-27.043l27.043-27.043l27.042,27.043L443.662,462.691z
				 M448.673,184.748l-26.47-26.526l26.47-26.526l26.469,26.526L448.673,184.748z M497.25,325.125v-38.25h38.25v38.25H497.25z"/>
		</g>
	</g>
</g>
<g>
</g>
<g>
</g>
<g>
</g>
<g>
</g>
<g>
</g>
<g>
</g>
<g>
</g>
<g>
</g>
<g>
</g>
<g>
</g>
<g>
</g>
<g>
</g>
<g>
</g>
<g>
</g>
<g>
</g>
</svg>
