<?xml version="1.0" encoding="iso-8859-1"?>
<!-- Generator: Adobe Illustrator 16.0.0, SVG Export Plug-In . SVG Version: 6.00 Build 0)  -->
<!DOCTYPE svg PUBLIC "-//W3C//DTD SVG 1.1//EN" "http://www.w3.org/Graphics/SVG/1.1/DTD/svg11.dtd">
<svg version="1.1" id="Capa_1" xmlns="http://www.w3.org/2000/svg" xmlns:xlink="http://www.w3.org/1999/xlink" x="0px" y="0px"
	 width="612px" height="612px" viewBox="0 0 612 612" style="enable-background:new 0 0 612 612;" xml:space="preserve">
<g>
	<g id="_x35__6_">
		<g>
			<path d="M573.75,459H535.5V172.125l-76.5,76.5V459H191.25L558.698,61.219l-27.042-27.043L153,439.875V153h191.25l73.86-76.5H153
				V38.25C153,17.117,135.883,0,114.75,0S76.5,17.117,76.5,38.25V76.5H38.25C17.117,76.5,0,93.617,0,114.75S17.117,153,38.25,153
				H76.5v344.25v38.25H459v38.25c0,21.114,17.117,38.25,38.25,38.25s38.25-17.117,38.25-38.25V535.5h38.25
				c21.133,0,38.25-17.117,38.25-38.25C612,476.136,594.883,459,573.75,459z"/>
		</g>
	</g>
</g>
<g>
</g>
<g>
</g>
<g>
</g>
<g>
</g>
<g>
</g>
<g>
</g>
<g>
</g>
<g>
</g>
<g>
</g>
<g>
</g>
<g>
</g>
<g>
</g>
<g>
</g>
<g>
</g>
<g>
</g>
</svg>
