<?xml version="1.0" encoding="iso-8859-1"?>
<!-- Generator: Adobe Illustrator 16.0.0, SVG Export Plug-In . SVG Version: 6.00 Build 0)  -->
<!DOCTYPE svg PUBLIC "-//W3C//DTD SVG 1.1//EN" "http://www.w3.org/Graphics/SVG/1.1/DTD/svg11.dtd">
<svg version="1.1" id="Capa_1" xmlns="http://www.w3.org/2000/svg" xmlns:xlink="http://www.w3.org/1999/xlink" x="0px" y="0px"
	 width="612.771px" height="612.771px" viewBox="0 0 612.771 612.771" style="enable-background:new 0 0 612.771 612.771;"
	 xml:space="preserve">
<g>
	<g id="_x34__32_">
		<g>
			<path d="M331.999,434.212c14.412-0.025,25.534,11.02,25.509,25.509c-0.025,14.488-11.097,25.482-25.509,25.508h-178.56
				c-14.412,0.026-25.534-11.02-25.508-25.508V281.162c0.025-14.489,11.096-25.483,25.508-25.509
				c14.413-0.025,25.534,11.02,25.509,25.509l-0.102,118.588l293.5-295.668c-4.106-1.071-8.341-1.812-12.779-1.812H51.406
				c-28.187,0-51.017,22.856-51.017,51.043v408.569c0,28.11,22.651,50.89,50.609,50.89h408.544
				c28.187,0,51.017-22.855,51.017-51.043V153.313c0-4.464-0.766-8.724-1.837-12.856L214.813,434.136L331.999,434.212z
				 M604.787,7.634c-10.127-10.178-26.555-10.178-36.707,0l-95.733,96.448c17.831,4.643,31.759,18.57,36.401,36.4l96.039-95.938
				C614.914,34.315,614.914,17.812,604.787,7.634z"/>
		</g>
	</g>
</g>
<g>
</g>
<g>
</g>
<g>
</g>
<g>
</g>
<g>
</g>
<g>
</g>
<g>
</g>
<g>
</g>
<g>
</g>
<g>
</g>
<g>
</g>
<g>
</g>
<g>
</g>
<g>
</g>
<g>
</g>
</svg>
