<?xml version="1.0" encoding="iso-8859-1"?>
<!-- Generator: Adobe Illustrator 16.0.0, SVG Export Plug-In . SVG Version: 6.00 Build 0)  -->
<!DOCTYPE svg PUBLIC "-//W3C//DTD SVG 1.1//EN" "http://www.w3.org/Graphics/SVG/1.1/DTD/svg11.dtd">
<svg version="1.1" id="Capa_1" xmlns="http://www.w3.org/2000/svg" xmlns:xlink="http://www.w3.org/1999/xlink" x="0px" y="0px"
	 width="612px" height="612px" viewBox="0 0 612 612" style="enable-background:new 0 0 612 612;" xml:space="preserve">
<g>
	<g id="_x37__30_">
		<g>
			<path d="M441.156,172.68c-28.075-56.935-86.521-96.18-154.281-96.18c-90.825,0-165.049,70.399-171.494,159.598
				C48.616,255.127,0,313.459,0,382.5c0,81.453,67.703,147.855,153,152.541l325.125,0.459C543.839,506.966,612,427.463,612,353.812
				C612,257.136,536.418,178.321,441.156,172.68z M434.481,340.521L320.879,453.606c-4.016,3.997-9.313,5.699-14.572,5.432
				c-5.241,0.268-10.558-1.435-14.574-5.432L178.13,340.521c-7.516-7.478-7.516-19.622,0-27.1c7.516-7.479,19.699-7.479,27.215,0
				l81.53,81.186V210.662c0-10.576,8.568-19.145,19.125-19.145c10.557,0,19.125,8.568,19.125,19.145v184.537l82.142-81.778
				c7.517-7.479,19.699-7.479,27.215,0C441.998,320.918,441.998,333.043,434.481,340.521z"/>
		</g>
	</g>
</g>
<g>
</g>
<g>
</g>
<g>
</g>
<g>
</g>
<g>
</g>
<g>
</g>
<g>
</g>
<g>
</g>
<g>
</g>
<g>
</g>
<g>
</g>
<g>
</g>
<g>
</g>
<g>
</g>
<g>
</g>
</svg>
