<?xml version="1.0" encoding="iso-8859-1"?>
<!-- Generator: Adobe Illustrator 16.0.0, SVG Export Plug-In . SVG Version: 6.00 Build 0)  -->
<!DOCTYPE svg PUBLIC "-//W3C//DTD SVG 1.1//EN" "http://www.w3.org/Graphics/SVG/1.1/DTD/svg11.dtd">
<svg version="1.1" id="Capa_1" xmlns="http://www.w3.org/2000/svg" xmlns:xlink="http://www.w3.org/1999/xlink" x="0px" y="0px"
	 width="792px" height="792px" viewBox="0 0 792 792" style="enable-background:new 0 0 792 792;" xml:space="preserve">
<g>
	<g id="_x39__5_">
		<g>
			<path d="M622.285,226.286h-198v412.576L572.588,490.56c11.059-11.061,28.965-11.061,39.996,0
				c11.059,11.06,11.059,28.964,0,39.995L417.412,725.727c-5.883,5.884-13.719,8.4-21.413,8.005
				c-7.722,0.396-15.529-2.121-21.412-8.005L179.444,530.555c-11.06-11.031-11.06-28.964,0-39.995
				c11.06-11.061,28.965-11.061,39.996,0l148.274,148.302V226.286h-198c-31.256,0-56.571,25.316-56.571,56.571v452.572
				c0,31.256,25.315,56.571,56.571,56.571h452.571c31.256,0,56.572-25.315,56.572-56.571V282.857
				C678.857,251.602,653.541,226.286,622.285,226.286z M424.285,28.286C424.285,12.672,411.613,0,396,0
				s-28.286,12.672-28.286,28.286v198h56.571V28.286z"/>
		</g>
	</g>
</g>
<g>
</g>
<g>
</g>
<g>
</g>
<g>
</g>
<g>
</g>
<g>
</g>
<g>
</g>
<g>
</g>
<g>
</g>
<g>
</g>
<g>
</g>
<g>
</g>
<g>
</g>
<g>
</g>
<g>
</g>
</svg>
