<svg id="Capa_1" enable-background="new 0 0 512 512" height="512" viewBox="0 0 512 512" width="512" xmlns="http://www.w3.org/2000/svg"><path d="m381.211 100-91.211-91.217v91.217z"/><path d="m350.419 364.981c-.368.369-.746.727-1.131 1.074-3.444 3.682-7.493 6.778-11.951 9.113l-74.247 38.891c-6.422 3.363-13.639 5.138-20.875 5.138-12.024 0-23.327-4.682-31.826-13.183-4.137-4.135-7.325-8.902-9.538-14.015h-115.851c-8.284 0-15-6.716-15-15s6.716-15 15-15h113.881c.842-2.959 1.992-5.87 3.468-8.686l26.878-51.313h-144.227c-8.284 0-15-6.716-15-15s6.716-15 15-15h160.412l60-60h-220.412c-8.284 0-15-6.716-15-15s6.716-15 15-15h250c.132 0 .26.016.392.02l52.02-52.02h-112.412c-8.284 0-15-6.716-15-15v-115h-215c-24.813 0-45 20.187-45 45v422c0 24.813 20.187 45 45 45h300c24.813 0 45-20.187 45-45v-141.6z"/><path d="m500.303 172.671c15.596-15.596 15.596-40.972 0-56.568-7.555-7.555-17.6-11.716-28.284-11.716s-20.729 4.161-28.284 11.716l-14.142 14.142 56.568 56.568z"/><path d="m228.922 367.237c-3.045 5.812-1.959 12.927 2.681 17.566 2.883 2.883 6.723 4.394 10.611 4.394 2.368 0 4.755-.561 6.955-1.713l64.477-33.774-50.951-50.951z"/><path d="m283.023 203.382h180.001v80h-180.001z" transform="matrix(.707 -.707 .707 .707 -62.841 335.053)"/></svg>