<?xml version="1.0" encoding="iso-8859-1"?>
<!-- Generator: Adobe Illustrator 16.0.0, SVG Export Plug-In . SVG Version: 6.00 Build 0)  -->
<!DOCTYPE svg PUBLIC "-//W3C//DTD SVG 1.1//EN" "http://www.w3.org/Graphics/SVG/1.1/DTD/svg11.dtd">
<svg version="1.1" id="Capa_1" xmlns="http://www.w3.org/2000/svg" xmlns:xlink="http://www.w3.org/1999/xlink" x="0px" y="0px"
	 width="612px" height="612px" viewBox="0 0 612 612" style="enable-background:new 0 0 612 612;" xml:space="preserve">
<g>
	<g id="_x39__39_">
		<g>
			<path d="M607.41,169.256L306,0L4.59,169.256L306,395.046L607.41,169.256z M0,210.375C0,218.943,0,535.5,0,535.5
				c0,16.142,5.049,31.059,13.579,43.395l198.059-203.892L0,210.375z M306,439.875l-62.309-42.84L44.427,604.752
				C54.219,609.284,65.006,612,76.5,612h459c11.494,0,22.28-2.716,32.072-7.248L368.31,397.035L306,439.875z M400.362,375.003
				l198.059,203.892C606.951,566.559,612,551.642,612,535.5c0,0,0-311.91,0-319.043L400.362,375.003z"/>
		</g>
	</g>
</g>
<g>
</g>
<g>
</g>
<g>
</g>
<g>
</g>
<g>
</g>
<g>
</g>
<g>
</g>
<g>
</g>
<g>
</g>
<g>
</g>
<g>
</g>
<g>
</g>
<g>
</g>
<g>
</g>
<g>
</g>
</svg>
