<?xml version="1.0" encoding="iso-8859-1"?>
<!-- Generator: Adobe Illustrator 16.0.0, SVG Export Plug-In . SVG Version: 6.00 Build 0)  -->
<!DOCTYPE svg PUBLIC "-//W3C//DTD SVG 1.1//EN" "http://www.w3.org/Graphics/SVG/1.1/DTD/svg11.dtd">
<svg version="1.1" id="Capa_1" xmlns="http://www.w3.org/2000/svg" xmlns:xlink="http://www.w3.org/1999/xlink" x="0px" y="0px"
	 width="652.801px" height="652.801px" viewBox="0 0 652.801 652.801" style="enable-background:new 0 0 652.801 652.801;"
	 xml:space="preserve">
<g>
	<g id="_x37__31_">
		<g>
			<path d="M142.8,326.4h40.8v-40.8h-40.8V326.4z M142.8,489.6h40.8v-40.799h-40.8V489.6z M469.2,326.4H510v-40.8h-40.8V326.4z
				 M306,489.6h40.8v-40.799H306V489.6z M469.2,489.6H510v-40.799h-40.8V489.6z M550.801,0H102C56.937,0,20.4,36.536,20.4,81.6
				v489.599c0,45.064,36.537,81.602,81.6,81.602h448.8c45.063,0,81.6-36.537,81.6-81.602V81.6C632.4,36.536,595.864,0,550.801,0z
				 M163.2,530.4c-33.803,0-61.2-27.398-61.2-61.201S129.397,408,163.2,408s61.2,27.396,61.2,61.199S197.003,530.4,163.2,530.4z
				 M163.2,367.199c-33.803,0-61.2-27.396-61.2-61.199s27.397-61.2,61.2-61.2s61.2,27.397,61.2,61.2S197.003,367.199,163.2,367.199z
				 M326.4,530.4c-33.803,0-61.2-27.398-61.2-61.201S292.598,408,326.4,408s61.2,27.396,61.2,61.199S360.203,530.4,326.4,530.4z
				 M326.4,367.199c-33.803,0-61.2-27.396-61.2-61.199s27.397-61.2,61.2-61.2s61.2,27.397,61.2,61.2S360.203,367.199,326.4,367.199z
				 M489.601,530.4c-33.803,0-61.2-27.398-61.2-61.201S455.798,408,489.601,408s61.2,27.396,61.2,61.199
				S523.403,530.4,489.601,530.4z M489.601,367.199c-33.803,0-61.2-27.396-61.2-61.199s27.397-61.2,61.2-61.2s61.2,27.397,61.2,61.2
				S523.403,367.199,489.601,367.199z M591.601,122.4H61.2V81.6c0-22.542,18.258-40.8,40.8-40.8h448.8
				c22.542,0,40.8,18.278,40.8,40.8V122.4z M306,326.4h40.8v-40.8H306V326.4z"/>
		</g>
	</g>
</g>
<g>
</g>
<g>
</g>
<g>
</g>
<g>
</g>
<g>
</g>
<g>
</g>
<g>
</g>
<g>
</g>
<g>
</g>
<g>
</g>
<g>
</g>
<g>
</g>
<g>
</g>
<g>
</g>
<g>
</g>
</svg>
