<?xml version="1.0" encoding="iso-8859-1"?>
<!-- Generator: Adobe Illustrator 16.0.0, SVG Export Plug-In . SVG Version: 6.00 Build 0)  -->
<!DOCTYPE svg PUBLIC "-//W3C//DTD SVG 1.1//EN" "http://www.w3.org/Graphics/SVG/1.1/DTD/svg11.dtd">
<svg version="1.1" id="Capa_1" xmlns="http://www.w3.org/2000/svg" xmlns:xlink="http://www.w3.org/1999/xlink" x="0px" y="0px"
	 width="753.23px" height="753.23px" viewBox="0 0 753.23 753.23" style="enable-background:new 0 0 753.23 753.23;"
	 xml:space="preserve">
<g>
	<g id="_x31__1_">
		<g>
			<path d="M494.308,0.683C491.271,0.683,164.769,0,164.769,0c-51.997,0-94.154,42.157-94.154,94.154v564.923
				c0,51.996,42.157,94.153,94.154,94.153h423.692c51.997,0,94.154-42.157,94.154-94.153v-470.77L494.308,0.683z M517.846,564.923
				H235.384c-12.993,0-23.538-10.545-23.538-23.538s10.545-23.539,23.538-23.539h282.461c12.993,0,23.539,10.546,23.539,23.539
				S530.839,564.923,517.846,564.923z M517.846,423.692H235.384c-12.993,0-23.538-10.546-23.538-23.539s10.545-23.538,23.538-23.538
				h282.461c12.993,0,23.539,10.545,23.539,23.538S530.839,423.692,517.846,423.692z M541.385,188.308
				c-26.011,0-47.077-21.09-47.077-47.077c0,0,0-38.108,0-94.154l141.23,141.231H541.385z"/>
		</g>
	</g>
</g>
<g>
</g>
<g>
</g>
<g>
</g>
<g>
</g>
<g>
</g>
<g>
</g>
<g>
</g>
<g>
</g>
<g>
</g>
<g>
</g>
<g>
</g>
<g>
</g>
<g>
</g>
<g>
</g>
<g>
</g>
</svg>
