<?xml version="1.0" encoding="iso-8859-1"?>
<!-- Generator: Adobe Illustrator 16.0.0, SVG Export Plug-In . SVG Version: 6.00 Build 0)  -->
<!DOCTYPE svg PUBLIC "-//W3C//DTD SVG 1.1//EN" "http://www.w3.org/Graphics/SVG/1.1/DTD/svg11.dtd">
<svg version="1.1" id="Capa_1" xmlns="http://www.w3.org/2000/svg" xmlns:xlink="http://www.w3.org/1999/xlink" x="0px" y="0px"
	 width="783.359px" height="783.359px" viewBox="0 0 783.359 783.359" style="enable-background:new 0 0 783.359 783.359;"
	 xml:space="preserve">
<g>
	<g id="_x33__20_">
		<g>
			<path d="M232.56,514.08H183.6V73.44h48.96V48.96c0,0-0.881-48.96-48.96-48.96h-48.96c-27.026,0-48.96,21.91-48.96,48.96V734.4
				c0,27.051,21.934,48.959,48.96,48.959h48.96c27.05,0,48.96-21.908,48.96-48.959V514.08L232.56,514.08L232.56,514.08z
				 M648.72,171.36H501.84V587.52h146.88c27.051,0,48.96-21.908,48.96-48.959V220.32C697.68,193.27,675.771,171.36,648.72,171.36z
				 M232.56,188.006V514.08h220.32V73.44H232.56V188.006z"/>
		</g>
	</g>
</g>
<g>
</g>
<g>
</g>
<g>
</g>
<g>
</g>
<g>
</g>
<g>
</g>
<g>
</g>
<g>
</g>
<g>
</g>
<g>
</g>
<g>
</g>
<g>
</g>
<g>
</g>
<g>
</g>
<g>
</g>
</svg>
