<?xml version="1.0" encoding="iso-8859-1"?>
<!-- Generator: Adobe Illustrator 16.0.0, SVG Export Plug-In . SVG Version: 6.00 Build 0)  -->
<!DOCTYPE svg PUBLIC "-//W3C//DTD SVG 1.1//EN" "http://www.w3.org/Graphics/SVG/1.1/DTD/svg11.dtd">
<svg version="1.1" id="Capa_1" xmlns="http://www.w3.org/2000/svg" xmlns:xlink="http://www.w3.org/1999/xlink" x="0px" y="0px"
	 width="612px" height="612px" viewBox="0 0 612 612" style="enable-background:new 0 0 612 612;" xml:space="preserve">
<g>
	<g id="_x35__41_">
		<g>
			<path d="M535.5,95.625h-459c-42.247,0-76.5,34.253-76.5,76.5v267.75c0,42.247,34.253,76.5,76.5,76.5h459
				c42.247,0,76.5-34.253,76.5-76.5v-267.75C612,129.878,577.747,95.625,535.5,95.625z M95.625,401.625
				c-10.557,0-19.125-8.568-19.125-19.125s8.568-19.125,19.125-19.125s19.125,8.568,19.125,19.125S106.182,401.625,95.625,401.625z
				 M95.625,325.125c-10.557,0-19.125-8.568-19.125-19.125c0-10.557,8.568-19.125,19.125-19.125S114.75,295.443,114.75,306
				C114.75,316.557,106.182,325.125,95.625,325.125z M459,420.75c0,10.557-8.568,19.125-19.125,19.125h-267.75
				c-10.557,0-19.125-8.568-19.125-19.125v-229.5c0-10.557,8.568-19.125,19.125-19.125h267.75c10.557,0,19.125,8.568,19.125,19.125
				V420.75z M516.375,401.625c-10.557,0-19.125-8.568-19.125-19.125s8.568-19.125,19.125-19.125S535.5,371.943,535.5,382.5
				S526.932,401.625,516.375,401.625z M516.375,325.125c-10.557,0-19.125-8.568-19.125-19.125c0-10.557,8.568-19.125,19.125-19.125
				S535.5,295.443,535.5,306C535.5,316.557,526.932,325.125,516.375,325.125z M401.625,210.375h-191.25
				c-10.557,0-19.125,8.568-19.125,19.125v153c0,10.557,8.568,19.125,19.125,19.125h191.25c10.557,0,19.125-8.568,19.125-19.125
				v-153C420.75,218.943,412.182,210.375,401.625,210.375z"/>
		</g>
	</g>
</g>
<g>
</g>
<g>
</g>
<g>
</g>
<g>
</g>
<g>
</g>
<g>
</g>
<g>
</g>
<g>
</g>
<g>
</g>
<g>
</g>
<g>
</g>
<g>
</g>
<g>
</g>
<g>
</g>
<g>
</g>
</svg>
