<?xml version="1.0" encoding="iso-8859-1"?>
<!-- Generator: Adobe Illustrator 16.0.0, SVG Export Plug-In . SVG Version: 6.00 Build 0)  -->
<!DOCTYPE svg PUBLIC "-//W3C//DTD SVG 1.1//EN" "http://www.w3.org/Graphics/SVG/1.1/DTD/svg11.dtd">
<svg version="1.1" id="Capa_1" xmlns="http://www.w3.org/2000/svg" xmlns:xlink="http://www.w3.org/1999/xlink" x="0px" y="0px"
	 width="612px" height="612px" viewBox="0 0 612 612" style="enable-background:new 0 0 612 612;" xml:space="preserve">
<g>
	<g id="_x38__31_">
		<g>
			<path d="M0,0v38.25h38.25c0,31.04,0,363.375,0,363.375c0,45.326,31.441,76.5,76.5,76.5H229.5L153,612l57.604-0.249
				l76.271-133.626h38.25l76.271,133.626L459,612l-76.5-133.875h114.75c45.059,0,76.5-31.174,76.5-76.5c0,0,0-330.231,0-363.375H612
				V0H0z M210.375,363.375c0,10.557-8.568,19.125-19.125,19.125s-19.125-8.568-19.125-19.125v-76.5
				c0-10.557,8.568-19.125,19.125-19.125s19.125,8.568,19.125,19.125V363.375z M325.125,363.375
				c0,10.557-8.568,19.125-19.125,19.125c-10.557,0-19.125-8.568-19.125-19.125v-229.5c0-10.557,8.568-19.125,19.125-19.125
				c10.557,0,19.125,8.568,19.125,19.125V363.375z M439.875,363.375c0,10.557-8.568,19.125-19.125,19.125
				s-19.125-8.568-19.125-19.125V191.25c0-10.557,8.568-19.125,19.125-19.125s19.125,8.568,19.125,19.125V363.375z"/>
		</g>
	</g>
</g>
<g>
</g>
<g>
</g>
<g>
</g>
<g>
</g>
<g>
</g>
<g>
</g>
<g>
</g>
<g>
</g>
<g>
</g>
<g>
</g>
<g>
</g>
<g>
</g>
<g>
</g>
<g>
</g>
<g>
</g>
</svg>
