<?xml version="1.0" encoding="iso-8859-1"?>
<!-- Generator: Adobe Illustrator 16.0.0, SVG Export Plug-In . SVG Version: 6.00 Build 0)  -->
<!DOCTYPE svg PUBLIC "-//W3C//DTD SVG 1.1//EN" "http://www.w3.org/Graphics/SVG/1.1/DTD/svg11.dtd">
<svg version="1.1" id="Capa_1" xmlns="http://www.w3.org/2000/svg" xmlns:xlink="http://www.w3.org/1999/xlink" x="0px" y="0px"
	 width="612px" height="612px" viewBox="0 0 612 612" style="enable-background:new 0 0 612 612;" xml:space="preserve">
<g>
	<g id="_x35__26_">
		<g>
			<path d="M43.714,87.429h524.572c24.151,0,43.714-19.584,43.714-43.714S592.438,0,568.286,0H43.714C19.562,0,0,19.562,0,43.714
				C0,67.866,19.562,87.429,43.714,87.429z M43.714,262.286h349.714c24.152,0,43.714-19.562,43.714-43.714
				c0-24.152-19.562-43.714-43.714-43.714H43.714C19.562,174.857,0,194.419,0,218.571C0,242.724,19.562,262.286,43.714,262.286z
				 M568.286,349.714H43.714C19.562,349.714,0,369.276,0,393.429s19.562,43.714,43.714,43.714h524.572
				c24.151,0,43.714-19.562,43.714-43.714S592.438,349.714,568.286,349.714z M393.429,524.571H43.714
				C19.562,524.571,0,544.134,0,568.286C0,592.438,19.562,612,43.714,612h349.714c24.152,0,43.714-19.562,43.714-43.714
				C437.143,544.134,417.581,524.571,393.429,524.571z"/>
		</g>
	</g>
</g>
<g>
</g>
<g>
</g>
<g>
</g>
<g>
</g>
<g>
</g>
<g>
</g>
<g>
</g>
<g>
</g>
<g>
</g>
<g>
</g>
<g>
</g>
<g>
</g>
<g>
</g>
<g>
</g>
<g>
</g>
</svg>
