<?xml version="1.0" encoding="iso-8859-1"?>
<!-- Generator: Adobe Illustrator 16.0.0, SVG Export Plug-In . SVG Version: 6.00 Build 0)  -->
<!DOCTYPE svg PUBLIC "-//W3C//DTD SVG 1.1//EN" "http://www.w3.org/Graphics/SVG/1.1/DTD/svg11.dtd">
<svg version="1.1" id="Capa_1" xmlns="http://www.w3.org/2000/svg" xmlns:xlink="http://www.w3.org/1999/xlink" x="0px" y="0px"
	 width="612px" height="612px" viewBox="0 0 612 612" style="enable-background:new 0 0 612 612;" xml:space="preserve">
<g>
	<g id="_x37__10_">
		<g>
			<path d="M232.932,442.454c8.546,8.546,8.546,22.382,0,30.906c-8.546,8.546-22.382,8.546-30.906,0L51.233,322.546
				C46.665,318,44.72,311.967,45.026,306c-0.306-5.967,1.639-12,6.186-16.546l150.792-150.792c8.546-8.546,22.381-8.546,30.906,0
				c8.546,8.546,8.546,22.382,0,30.906L118.334,284.143h318.808v-153c0-24.152-19.562-43.714-43.714-43.714H43.714
				C19.562,87.429,0,106.991,0,131.143v349.714c0,24.13,19.562,43.714,43.714,43.714h349.714c24.152,0,43.714-19.562,43.714-43.714
				v-153H118.334L232.932,442.454z M590.143,284.143h-153v43.714h153c12.065,0,21.857-9.792,21.857-21.857
				C612,293.935,602.208,284.143,590.143,284.143z"/>
		</g>
	</g>
</g>
<g>
</g>
<g>
</g>
<g>
</g>
<g>
</g>
<g>
</g>
<g>
</g>
<g>
</g>
<g>
</g>
<g>
</g>
<g>
</g>
<g>
</g>
<g>
</g>
<g>
</g>
<g>
</g>
<g>
</g>
</svg>
