<?xml version="1.0" encoding="iso-8859-1"?>
<!-- Generator: Adobe Illustrator 16.0.0, SVG Export Plug-In . SVG Version: 6.00 Build 0)  -->
<!DOCTYPE svg PUBLIC "-//W3C//DTD SVG 1.1//EN" "http://www.w3.org/Graphics/SVG/1.1/DTD/svg11.dtd">
<svg version="1.1" id="Capa_1" xmlns="http://www.w3.org/2000/svg" xmlns:xlink="http://www.w3.org/1999/xlink" x="0px" y="0px"
	 width="631.742px" height="631.742px" viewBox="0 0 631.742 631.742" style="enable-background:new 0 0 631.742 631.742;"
	 xml:space="preserve">
<g>
	<g id="_x31_0_40_">
		<g>
			<path d="M444.193,592.258H404.71v-39.483H246.774v39.483h-39.484c-10.897,0-19.742,8.845-19.742,19.742
				s8.845,19.742,19.742,19.742h236.903c10.897,0,19.742-8.845,19.742-19.742S455.091,592.258,444.193,592.258z M9.871,434.322
				c0,43.61,35.358,78.968,78.968,78.968h454.064c43.61,0,78.968-35.357,78.968-78.968v-39.483h-612V434.322z M542.903,0H88.839
				C45.229,0,9.871,35.358,9.871,78.968v276.388h612V78.968C621.871,35.358,586.514,0,542.903,0z"/>
		</g>
	</g>
</g>
<g>
</g>
<g>
</g>
<g>
</g>
<g>
</g>
<g>
</g>
<g>
</g>
<g>
</g>
<g>
</g>
<g>
</g>
<g>
</g>
<g>
</g>
<g>
</g>
<g>
</g>
<g>
</g>
<g>
</g>
</svg>
