<?xml version="1.0" encoding="iso-8859-1"?>
<!-- Generator: Adobe Illustrator 16.0.0, SVG Export Plug-In . SVG Version: 6.00 Build 0)  -->
<!DOCTYPE svg PUBLIC "-//W3C//DTD SVG 1.1//EN" "http://www.w3.org/Graphics/SVG/1.1/DTD/svg11.dtd">
<svg version="1.1" id="Capa_1" xmlns="http://www.w3.org/2000/svg" xmlns:xlink="http://www.w3.org/1999/xlink" x="0px" y="0px"
	 width="753.115px" height="753.115px" viewBox="0 0 753.115 753.115" style="enable-background:new 0 0 753.115 753.115;"
	 xml:space="preserve">
<g>
	<g id="_x32__15_">
		<g>
			<path d="M211.773,658.976c0,51.988,42.151,94.14,94.14,94.14h47.069c51.988,0,94.14-42.151,94.14-94.14V517.767H211.773V658.976z
				 M352.982,0h-47.069c-51.989,0-94.14,42.151-94.14,94.14h235.349C447.122,42.151,404.971,0,352.982,0z M675.81,287.69
				l-70.134-139.844c-5.013-5.013-11.673-7.061-18.239-6.637H117.634c-25.982,0-47.07,21.064-47.07,47.07v235.348
				c0,26.006,21.087,47.07,47.07,47.07l470.697-0.565c0,0,12.567-2.023,17.345-6.801l70.134-139.845
				c5.296-9.884,6.002-13.109,6.708-17.886C682.847,299.151,680.752,296.657,675.81,287.69z"/>
		</g>
	</g>
</g>
<g>
</g>
<g>
</g>
<g>
</g>
<g>
</g>
<g>
</g>
<g>
</g>
<g>
</g>
<g>
</g>
<g>
</g>
<g>
</g>
<g>
</g>
<g>
</g>
<g>
</g>
<g>
</g>
<g>
</g>
</svg>
