<?xml version="1.0" encoding="iso-8859-1"?>
<!-- Generator: Adobe Illustrator 16.0.0, SVG Export Plug-In . SVG Version: 6.00 Build 0)  -->
<!DOCTYPE svg PUBLIC "-//W3C//DTD SVG 1.1//EN" "http://www.w3.org/Graphics/SVG/1.1/DTD/svg11.dtd">
<svg version="1.1" id="Capa_1" xmlns="http://www.w3.org/2000/svg" xmlns:xlink="http://www.w3.org/1999/xlink" x="0px" y="0px"
	 width="612px" height="612px" viewBox="0 0 612 612" style="enable-background:new 0 0 612 612;" xml:space="preserve">
<g>
	<g id="_x38__10_">
		<g>
			<path d="M0,95.625v420.75c0,42.247,34.253,76.5,76.5,76.5H459V19.125H76.5C34.253,19.125,0,53.378,0,95.625z M95.625,286.875
				h234.721l-76.328-63.074c-7.516-7.497-7.516-19.661,0-27.158c7.516-7.497,19.699-7.497,27.234,0l114.368,94.516
				c4.016,3.997,5.718,9.313,5.45,14.534c0.268,5.241-1.435,10.538-5.45,14.535l-114.368,94.517c-7.516,7.497-19.699,7.497-27.234,0
				c-7.516-7.497-7.516-19.661,0-27.158l75.601-62.462H95.625c-10.557,0-19.125-8.568-19.125-19.125
				C76.5,295.443,85.068,286.875,95.625,286.875z M535.5,19.125h-38.25v573.75h38.25c42.247,0,76.5-34.253,76.5-76.5V95.625
				C612,53.378,577.747,19.125,535.5,19.125z"/>
		</g>
	</g>
</g>
<g>
</g>
<g>
</g>
<g>
</g>
<g>
</g>
<g>
</g>
<g>
</g>
<g>
</g>
<g>
</g>
<g>
</g>
<g>
</g>
<g>
</g>
<g>
</g>
<g>
</g>
<g>
</g>
<g>
</g>
</svg>
