<?xml version="1.0" encoding="iso-8859-1"?>
<!-- Generator: Adobe Illustrator 16.0.0, SVG Export Plug-In . SVG Version: 6.00 Build 0)  -->
<!DOCTYPE svg PUBLIC "-//W3C//DTD SVG 1.1//EN" "http://www.w3.org/Graphics/SVG/1.1/DTD/svg11.dtd">
<svg version="1.1" id="Capa_1" xmlns="http://www.w3.org/2000/svg" xmlns:xlink="http://www.w3.org/1999/xlink" x="0px" y="0px"
	 width="612px" height="612px" viewBox="0 0 612 612" style="enable-background:new 0 0 612 612;" xml:space="preserve">
<g>
	<g id="_x35__5_">
		<g>
			<path d="M306,0C136.992,0,0,136.992,0,306s136.992,306,306,306s306-137.012,306-306S475.008,0,306,0z M431.001,322.811
				l-108.19,108.19c-7.478,7.478-19.583,7.478-27.042,0c-7.478-7.478-7.478-19.584,0-27.043l78.814-78.833H172.125
				C161.568,325.125,153,316.557,153,306c0-10.557,8.568-19.125,19.125-19.125h202.457l-78.814-78.814
				c-7.478-7.478-7.478-19.584,0-27.043c7.478-7.478,19.584-7.478,27.042,0l108.19,108.19c4.59,4.59,6.005,10.863,4.973,16.812
				C437.006,311.929,435.572,318.221,431.001,322.811z"/>
		</g>
	</g>
</g>
<g>
</g>
<g>
</g>
<g>
</g>
<g>
</g>
<g>
</g>
<g>
</g>
<g>
</g>
<g>
</g>
<g>
</g>
<g>
</g>
<g>
</g>
<g>
</g>
<g>
</g>
<g>
</g>
<g>
</g>
</svg>
