<?xml version="1.0" encoding="iso-8859-1"?>
<!-- Generator: Adobe Illustrator 16.0.0, SVG Export Plug-In . SVG Version: 6.00 Build 0)  -->
<!DOCTYPE svg PUBLIC "-//W3C//DTD SVG 1.1//EN" "http://www.w3.org/Graphics/SVG/1.1/DTD/svg11.dtd">
<svg version="1.1" id="Capa_1" xmlns="http://www.w3.org/2000/svg" xmlns:xlink="http://www.w3.org/1999/xlink" x="0px" y="0px"
	 width="792px" height="792px" viewBox="0 0 792 792" style="enable-background:new 0 0 792 792;" xml:space="preserve">
<g>
	<g id="_x31_0_16_">
		<g>
			<path d="M643.5,742.5H594V569.25C594,473.566,516.434,396,420.75,396C516.434,396,594,318.434,594,222.75V49.5h49.5
				c13.662,0,24.75-11.088,24.75-24.75S657.162,0,643.5,0h-495c-13.662,0-24.75,11.088-24.75,24.75S134.838,49.5,148.5,49.5H198
				v173.25C198,318.434,275.566,396,371.25,396C275.566,396,198,473.566,198,569.25V742.5h-49.5c-13.662,0-24.75,11.088-24.75,24.75
				S134.838,792,148.5,792h495c13.662,0,24.75-11.088,24.75-24.75S657.162,742.5,643.5,742.5z"/>
		</g>
	</g>
</g>
<g>
</g>
<g>
</g>
<g>
</g>
<g>
</g>
<g>
</g>
<g>
</g>
<g>
</g>
<g>
</g>
<g>
</g>
<g>
</g>
<g>
</g>
<g>
</g>
<g>
</g>
<g>
</g>
<g>
</g>
</svg>
