<?xml version="1.0" encoding="iso-8859-1"?>
<!-- Generator: Adobe Illustrator 16.0.0, SVG Export Plug-In . SVG Version: 6.00 Build 0)  -->
<!DOCTYPE svg PUBLIC "-//W3C//DTD SVG 1.1//EN" "http://www.w3.org/Graphics/SVG/1.1/DTD/svg11.dtd">
<svg version="1.1" id="Capa_1" xmlns="http://www.w3.org/2000/svg" xmlns:xlink="http://www.w3.org/1999/xlink" x="0px" y="0px"
	 width="612px" height="612px" viewBox="0 0 612 612" style="enable-background:new 0 0 612 612;" xml:space="preserve">
<g>
	<g id="_x31__7_">
		<g>
			<path d="M441.156,172.68c-28.075-56.935-86.521-96.18-154.281-96.18c-90.825,0-165.049,70.399-171.494,159.598
				C48.616,255.127,0,313.459,0,382.5c0,81.453,67.703,147.855,153,152.541c0,0,264.518,0.459,267.75,0.459
				C521.099,535.5,612,454.161,612,353.812C612,257.136,536.418,178.321,441.156,172.68z M321.606,428.018
				c-4.15,10.021-14.956,14.478-24.117,9.926c-9.161-4.552-13.215-16.352-9.065-26.393l48.634-86.254l-81.587,0.574
				c-8.109,0-14.937-5.088-17.729-12.202c-2.065-4.628-2.391-10.002-0.287-15.051l43.777-106.067
				c4.036-9.773,15.205-14.42,24.978-10.385c9.753,4.036,14.4,15.205,10.385,24.978l-29.721,79.732h76.5
				c10.557,0,19.125,8.568,19.125,19.125C382.5,317.36,321.606,428.018,321.606,428.018z"/>
		</g>
	</g>
</g>
<g>
</g>
<g>
</g>
<g>
</g>
<g>
</g>
<g>
</g>
<g>
</g>
<g>
</g>
<g>
</g>
<g>
</g>
<g>
</g>
<g>
</g>
<g>
</g>
<g>
</g>
<g>
</g>
<g>
</g>
</svg>
