<?xml version="1.0" encoding="iso-8859-1"?>
<!-- Generator: Adobe Illustrator 16.0.0, SVG Export Plug-In . SVG Version: 6.00 Build 0)  -->
<!DOCTYPE svg PUBLIC "-//W3C//DTD SVG 1.1//EN" "http://www.w3.org/Graphics/SVG/1.1/DTD/svg11.dtd">
<svg version="1.1" id="Capa_1" xmlns="http://www.w3.org/2000/svg" xmlns:xlink="http://www.w3.org/1999/xlink" x="0px" y="0px"
	 width="611.976px" height="611.976px" viewBox="0 0 611.976 611.976" style="enable-background:new 0 0 611.976 611.976;"
	 xml:space="preserve">
<g>
	<g id="_x36__8_">
		<g>
			<path d="M23.242,280.944c-30.989,30.875-30.989,80.963,0,111.858l196.359,195.767c30.99,30.895,81.213,30.895,112.202,0
				l33.992-33.915L57.712,246.57L23.242,280.944z M575.365,0.236H318.919c-20.227,0-23.936,8.852-43.226,29.021L84.783,219.575
				l308.083,308.084l191.37-190.796c16.25-16.212,27.739-24.261,27.739-44.449V36.771C611.995,16.583,595.592,0.236,575.365,0.236z
				 M474.423,245.748c-29.823,29.843-78.173,29.843-107.978,0c-29.823-29.843-29.823-78.23,0-108.054
				c29.824-29.843,78.173-29.843,107.978,0C504.247,167.537,504.247,215.905,474.423,245.748z M393.421,164.707
				c-14.912,14.931-14.912,39.115,0,54.027c14.912,14.912,39.077,14.912,53.989,0c14.911-14.912,14.911-39.115,0-54.027
				C432.517,149.776,408.333,149.776,393.421,164.707z"/>
		</g>
	</g>
</g>
<g>
</g>
<g>
</g>
<g>
</g>
<g>
</g>
<g>
</g>
<g>
</g>
<g>
</g>
<g>
</g>
<g>
</g>
<g>
</g>
<g>
</g>
<g>
</g>
<g>
</g>
<g>
</g>
<g>
</g>
</svg>
