<?xml version="1.0" encoding="iso-8859-1"?>
<!-- Generator: Adobe Illustrator 16.0.0, SVG Export Plug-In . SVG Version: 6.00 Build 0)  -->
<!DOCTYPE svg PUBLIC "-//W3C//DTD SVG 1.1//EN" "http://www.w3.org/Graphics/SVG/1.1/DTD/svg11.dtd">
<svg version="1.1" id="Capa_1" xmlns="http://www.w3.org/2000/svg" xmlns:xlink="http://www.w3.org/1999/xlink" x="0px" y="0px"
	 width="612px" height="612px" viewBox="0 0 612 612" style="enable-background:new 0 0 612 612;" xml:space="preserve">
<g>
	<g id="_x38__36_">
		<g>
			<path d="M469.2,306c0-13.076,7.344-20.4,20.399-20.4H612C600.474,134.722,477.299,11.526,326.4,0v122.4
				c0,13.056-7.345,20.4-20.4,20.4c-13.056,0-20.4-7.344-20.4-20.4V0C134.701,11.526,11.526,134.722,0,285.6h122.4
				c13.056,0,20.4,7.324,20.4,20.4c0,13.056-7.344,20.4-20.4,20.4H0C11.526,477.278,134.701,600.474,285.6,612V489.6
				c0-13.056,7.344-20.399,20.4-20.399c13.056,0,20.4,7.344,20.4,20.399V612C477.299,600.474,600.474,477.278,612,326.4H489.6
				C476.544,326.4,469.2,319.056,469.2,306z"/>
		</g>
	</g>
</g>
<g>
</g>
<g>
</g>
<g>
</g>
<g>
</g>
<g>
</g>
<g>
</g>
<g>
</g>
<g>
</g>
<g>
</g>
<g>
</g>
<g>
</g>
<g>
</g>
<g>
</g>
<g>
</g>
<g>
</g>
</svg>
