<?xml version="1.0" encoding="iso-8859-1"?>
<!-- Generator: Adobe Illustrator 16.0.0, SVG Export Plug-In . SVG Version: 6.00 Build 0)  -->
<!DOCTYPE svg PUBLIC "-//W3C//DTD SVG 1.1//EN" "http://www.w3.org/Graphics/SVG/1.1/DTD/svg11.dtd">
<svg version="1.1" id="Capa_1" xmlns="http://www.w3.org/2000/svg" xmlns:xlink="http://www.w3.org/1999/xlink" x="0px" y="0px"
	 width="753.23px" height="753.23px" viewBox="0 0 753.23 753.23" style="enable-background:new 0 0 753.23 753.23;"
	 xml:space="preserve">
<g>
	<g id="_x35__34_">
		<g>
			<path d="M164.769,211.846h-47.077c-26.01,0-47.077,21.09-47.077,47.077v447.23c0,26.011,21.067,47.077,47.077,47.077h47.077
				c26.01,0,47.077-21.066,47.077-47.077v-447.23C211.846,232.913,190.779,211.846,164.769,211.846z M400.153,0h-47.077
				C327.067,0,306,21.067,306,47.077v659.077c0,26.011,21.067,47.077,47.077,47.077h47.077c26.011,0,47.077-21.066,47.077-47.077
				V47.077C447.23,21.067,426.164,0,400.153,0z M635.538,376.615h-47.077c-26.01,0-47.076,21.067-47.076,47.077v282.461
				c0,26.011,21.066,47.077,47.076,47.077h47.077c26.01,0,47.077-21.066,47.077-47.077V423.692
				C682.615,397.683,661.548,376.615,635.538,376.615z"/>
		</g>
	</g>
</g>
<g>
</g>
<g>
</g>
<g>
</g>
<g>
</g>
<g>
</g>
<g>
</g>
<g>
</g>
<g>
</g>
<g>
</g>
<g>
</g>
<g>
</g>
<g>
</g>
<g>
</g>
<g>
</g>
<g>
</g>
</svg>
