<?xml version="1.0" encoding="iso-8859-1"?>
<!-- Generator: Adobe Illustrator 16.0.0, SVG Export Plug-In . SVG Version: 6.00 Build 0)  -->
<!DOCTYPE svg PUBLIC "-//W3C//DTD SVG 1.1//EN" "http://www.w3.org/Graphics/SVG/1.1/DTD/svg11.dtd">
<svg version="1.1" id="Capa_1" xmlns="http://www.w3.org/2000/svg" xmlns:xlink="http://www.w3.org/1999/xlink" x="0px" y="0px"
	 width="792px" height="792px" viewBox="0 0 792 792" style="enable-background:new 0 0 792 792;" xml:space="preserve">
<g>
	<g id="_x31_0_9_">
		<g>
			<path d="M396,49.5c54.673,0,99,15.32,99,49.5l0,0h49.5c0-54.673-66.479-99-148.5-99S247.5,44.327,247.5,99H297l0,0
				C297,64.82,341.327,49.5,396,49.5z M99,693c0,54.673,44.327,99,99,99h396c54.673,0,99-44.327,99-99v-49.5H99V693z M594,99h-49.5
				v198H495V99H297v198h-49.5V99H198c-54.673,0-99,44.327-99,99v396h594V198C693,143.327,648.673,99,594,99z"/>
		</g>
	</g>
</g>
<g>
</g>
<g>
</g>
<g>
</g>
<g>
</g>
<g>
</g>
<g>
</g>
<g>
</g>
<g>
</g>
<g>
</g>
<g>
</g>
<g>
</g>
<g>
</g>
<g>
</g>
<g>
</g>
<g>
</g>
</svg>
