<?xml version="1.0" encoding="iso-8859-1"?>
<!-- Generator: Adobe Illustrator 16.0.0, SVG Export Plug-In . SVG Version: 6.00 Build 0)  -->
<!DOCTYPE svg PUBLIC "-//W3C//DTD SVG 1.1//EN" "http://www.w3.org/Graphics/SVG/1.1/DTD/svg11.dtd">
<svg version="1.1" id="Capa_1" xmlns="http://www.w3.org/2000/svg" xmlns:xlink="http://www.w3.org/1999/xlink" x="0px" y="0px"
	 width="611.997px" height="611.997px" viewBox="0 0 611.997 611.997" style="enable-background:new 0 0 611.997 611.997;"
	 xml:space="preserve">
<g>
	<g id="_x34__9_">
		<g>
			<path d="M163.231,387.644V224.482c0-7.832,1.917-18.927-6.118-26.779c-8.036-7.832-21.048-7.832-29.084,0L5.841,296.498
				c-4.283,4.181-6.098,9.729-5.812,15.195c-0.286,5.466,1.529,11.013,5.812,15.194l122.188,98.774
				c8.036,7.831,21.048,7.831,29.084,0C165.148,417.829,163.231,402.491,163.231,387.644z M606.135,296.498l-122.167-98.794
				c-8.036-7.832-21.048-7.832-29.084,0c-8.036,7.832-6.118,15.113-6.118,26.779v163.162c0,11.014-1.918,30.186,6.118,38.018
				c8.035,7.831,21.048,7.831,29.084,0l122.188-98.774c4.283-4.182,6.099-9.729,5.812-15.194
				C612.254,306.226,610.418,300.679,606.135,296.498z M447.929,43.434c-9.749-5.527-22.23-2.244-27.859,7.322l-254.941,491.26
				c-5.629,9.565-3.304,24.188,7.465,27.31c13.176,3.813,22.231,2.243,27.86-7.322l254.94-491.26
				C461.043,61.157,457.698,48.94,447.929,43.434z"/>
		</g>
	</g>
</g>
<g>
</g>
<g>
</g>
<g>
</g>
<g>
</g>
<g>
</g>
<g>
</g>
<g>
</g>
<g>
</g>
<g>
</g>
<g>
</g>
<g>
</g>
<g>
</g>
<g>
</g>
<g>
</g>
<g>
</g>
</svg>
