<?xml version="1.0" encoding="iso-8859-1"?>
<!-- Generator: Adobe Illustrator 16.0.0, SVG Export Plug-In . SVG Version: 6.00 Build 0)  -->
<!DOCTYPE svg PUBLIC "-//W3C//DTD SVG 1.1//EN" "http://www.w3.org/Graphics/SVG/1.1/DTD/svg11.dtd">
<svg version="1.1" id="Capa_1" xmlns="http://www.w3.org/2000/svg" xmlns:xlink="http://www.w3.org/1999/xlink" x="0px" y="0px"
	 width="753.23px" height="753.23px" viewBox="0 0 753.23 753.23" style="enable-background:new 0 0 753.23 753.23;"
	 xml:space="preserve">
<g>
	<g id="_x36__15_">
		<g>
			<path d="M376.615,0c-114.868,116.492-306,278.225-306,447.23s136.994,306,306,306c169.006,0,306-136.994,306-306
				S496.12,119.505,376.615,0z M376.615,635.538c-91,0-164.769-72.78-164.769-162.557c0-89.775,102.91-175.714,164.769-237.597
				c64.354,63.483,164.77,147.821,164.77,237.597C541.385,562.758,467.615,635.538,376.615,635.538z M375.815,294.348
				c-44.064,47.336-116.609,101.168-116.609,169.807c0,68.638,52.561,124.306,117.41,124.306s117.41-55.645,117.41-124.306
				C494.025,395.493,421.668,342.885,375.815,294.348z"/>
		</g>
	</g>
</g>
<g>
</g>
<g>
</g>
<g>
</g>
<g>
</g>
<g>
</g>
<g>
</g>
<g>
</g>
<g>
</g>
<g>
</g>
<g>
</g>
<g>
</g>
<g>
</g>
<g>
</g>
<g>
</g>
<g>
</g>
</svg>
