<?xml version="1.0" encoding="iso-8859-1"?>
<!-- Generator: Adobe Illustrator 16.0.0, SVG Export Plug-In . SVG Version: 6.00 Build 0)  -->
<!DOCTYPE svg PUBLIC "-//W3C//DTD SVG 1.1//EN" "http://www.w3.org/Graphics/SVG/1.1/DTD/svg11.dtd">
<svg version="1.1" id="Capa_1" xmlns="http://www.w3.org/2000/svg" xmlns:xlink="http://www.w3.org/1999/xlink" x="0px" y="0px"
	 width="792px" height="792px" viewBox="0 0 792 792" style="enable-background:new 0 0 792 792;" xml:space="preserve">
<g>
	<g id="_x38__23_">
		<g>
			<path d="M396,297c-55.787,0-107.093,18.686-148.5,49.847V198c0-82.021,66.479-148.5,148.5-148.5S544.5,115.979,544.5,198H594
				C594,88.654,505.346,0,396,0S198,88.654,198,198v198.445c-30.938,41.333-49.5,92.466-49.5,148.055
				C148.5,681.194,259.306,792,396,792s247.5-110.806,247.5-247.5S532.694,297,396,297z M420.75,618.75
				c0,13.662-11.088,24.75-24.75,24.75s-24.75-11.088-24.75-24.75v-99c0-13.662,11.088-24.75,24.75-24.75s24.75,11.088,24.75,24.75
				V618.75z"/>
		</g>
	</g>
</g>
<g>
</g>
<g>
</g>
<g>
</g>
<g>
</g>
<g>
</g>
<g>
</g>
<g>
</g>
<g>
</g>
<g>
</g>
<g>
</g>
<g>
</g>
<g>
</g>
<g>
</g>
<g>
</g>
<g>
</g>
</svg>
