<?xml version="1.0" encoding="iso-8859-1"?>
<!-- Generator: Adobe Illustrator 16.0.0, SVG Export Plug-In . SVG Version: 6.00 Build 0)  -->
<!DOCTYPE svg PUBLIC "-//W3C//DTD SVG 1.1//EN" "http://www.w3.org/Graphics/SVG/1.1/DTD/svg11.dtd">
<svg version="1.1" id="Capa_1" xmlns="http://www.w3.org/2000/svg" xmlns:xlink="http://www.w3.org/1999/xlink" x="0px" y="0px"
	 width="612px" height="612px" viewBox="0 0 612 612" style="enable-background:new 0 0 612 612;" xml:space="preserve">
<g>
	<g id="_x39__38_">
		<g>
			<path d="M535.5,0h-459C34.253,0,0,34.253,0,76.5v459C0,577.747,34.253,612,76.5,612h459c42.247,0,76.5-34.253,76.5-76.5v-459
				C612,34.253,577.747,0,535.5,0z M431.001,297.126c-7.478,7.478-19.584,7.478-27.043,0l-78.833-78.833V420.75
				c0,10.557-8.568,19.125-19.125,19.125c-10.557,0-19.125-8.568-19.125-19.125V218.293l-78.814,78.814
				c-7.478,7.478-19.584,7.478-27.043,0c-7.478-7.478-7.478-19.584,0-27.043l108.19-108.19c4.59-4.59,10.863-6.005,16.812-4.973
				c5.929-1.052,12.221,0.383,16.811,4.973l108.19,108.19C438.46,277.542,438.46,289.648,431.001,297.126z"/>
		</g>
	</g>
</g>
<g>
</g>
<g>
</g>
<g>
</g>
<g>
</g>
<g>
</g>
<g>
</g>
<g>
</g>
<g>
</g>
<g>
</g>
<g>
</g>
<g>
</g>
<g>
</g>
<g>
</g>
<g>
</g>
<g>
</g>
</svg>
