<?xml version="1.0" encoding="iso-8859-1"?>
<!-- Generator: Adobe Illustrator 16.0.0, SVG Export Plug-In . SVG Version: 6.00 Build 0)  -->
<!DOCTYPE svg PUBLIC "-//W3C//DTD SVG 1.1//EN" "http://www.w3.org/Graphics/SVG/1.1/DTD/svg11.dtd">
<svg version="1.1" id="Capa_1" xmlns="http://www.w3.org/2000/svg" xmlns:xlink="http://www.w3.org/1999/xlink" x="0px" y="0px"
	 width="792px" height="792px" viewBox="0 0 792 792" style="enable-background:new 0 0 792 792;" xml:space="preserve">
<g>
	<g id="_x38__5_">
		<g>
			<path d="M622.285,0H169.714c-31.256,0-56.571,25.316-56.571,56.571v452.571c0,31.256,25.315,56.571,56.571,56.571h198V153.139
				L219.412,301.441c-11.06,11.06-28.964,11.06-39.996,0c-11.06-11.06-11.06-28.964,0-39.996L374.587,66.302
				c5.883-5.912,13.69-8.429,21.412-8.033c7.721-0.396,15.53,2.122,21.413,8.005l195.143,195.143
				c11.061,11.032,11.061,28.965,0,39.996c-11.059,11.06-28.965,11.06-39.996,0L424.285,153.139v412.575h198
				c31.256,0,56.572-25.315,56.572-56.571V56.571C678.857,25.316,653.541,0,622.285,0z M367.714,763.714
				C367.714,779.328,380.386,792,396,792s28.286-12.672,28.286-28.286v-198h-56.571V763.714z"/>
		</g>
	</g>
</g>
<g>
</g>
<g>
</g>
<g>
</g>
<g>
</g>
<g>
</g>
<g>
</g>
<g>
</g>
<g>
</g>
<g>
</g>
<g>
</g>
<g>
</g>
<g>
</g>
<g>
</g>
<g>
</g>
<g>
</g>
</svg>
