<?xml version="1.0" encoding="iso-8859-1"?>
<!-- Generator: Adobe Illustrator 16.0.0, SVG Export Plug-In . SVG Version: 6.00 Build 0)  -->
<!DOCTYPE svg PUBLIC "-//W3C//DTD SVG 1.1//EN" "http://www.w3.org/Graphics/SVG/1.1/DTD/svg11.dtd">
<svg version="1.1" id="Capa_1" xmlns="http://www.w3.org/2000/svg" xmlns:xlink="http://www.w3.org/1999/xlink" x="0px" y="0px"
	 width="792px" height="792px" viewBox="0 0 792 792" style="enable-background:new 0 0 792 792;" xml:space="preserve">
<g>
	<g id="_x39__37_">
		<g>
			<path d="M638.303,177.309C614.988,76.082,515.369,0,396,0C276.606,0,177.012,76.082,153.697,177.309
				c-17.622,7.573-29.947,25.047-29.947,45.441v49.5c0,27.349,22.151,49.5,49.5,49.5c0,0,54.92,123.75,222.75,123.75
				c167.83,0,222.75-123.75,222.75-123.75c27.349,0,49.5-22.151,49.5-49.5v-49.5C668.25,202.356,655.899,184.882,638.303,177.309z
				 M594,272.25H198c-13.662,0-24.75-11.088-24.75-24.75s11.088-24.75,24.75-24.75h396c13.662,0,24.75,11.088,24.75,24.75
				S607.662,272.25,594,272.25z M257.821,468.345L297,742.5c0,27.349,22.151,49.5,49.5,49.5h99c27.349,0,49.5-22.151,49.5-49.5
				l39.154-274.155C398.723,524.502,274.329,475.002,257.821,468.345z"/>
		</g>
	</g>
</g>
<g>
</g>
<g>
</g>
<g>
</g>
<g>
</g>
<g>
</g>
<g>
</g>
<g>
</g>
<g>
</g>
<g>
</g>
<g>
</g>
<g>
</g>
<g>
</g>
<g>
</g>
<g>
</g>
<g>
</g>
</svg>
