<?xml version="1.0" encoding="iso-8859-1"?>
<!-- Generator: Adobe Illustrator 16.0.0, SVG Export Plug-In . SVG Version: 6.00 Build 0)  -->
<!DOCTYPE svg PUBLIC "-//W3C//DTD SVG 1.1//EN" "http://www.w3.org/Graphics/SVG/1.1/DTD/svg11.dtd">
<svg version="1.1" id="Capa_1" xmlns="http://www.w3.org/2000/svg" xmlns:xlink="http://www.w3.org/1999/xlink" x="0px" y="0px"
	 width="655.736px" height="655.736px" viewBox="0 0 655.736 655.736" style="enable-background:new 0 0 655.736 655.736;"
	 xml:space="preserve">
<g>
	<g id="_x34__34_">
		<g>
			<path d="M511.468,451.736h122.4v-40.801h-122.4V451.736z M593.068,23.335c0-11.261-4.814-17.544-15.3-21.665
				c-8.079-3.183-15.933-1.286-25.5,1.265l-530.4,163.2h571.2V23.335z M593.068,206.936h-571.2v408
				c0,22.521,18.258,40.801,40.8,40.801h530.4c22.542,0,40.8-18.279,40.8-40.801v-122.4h-142.8c-11.261,0-20.4-9.139-20.4-20.4
				v-81.6c0-11.26,9.14-20.4,20.4-20.4h142.8V247.735C633.868,225.214,615.61,206.936,593.068,206.936z"/>
		</g>
	</g>
</g>
<g>
</g>
<g>
</g>
<g>
</g>
<g>
</g>
<g>
</g>
<g>
</g>
<g>
</g>
<g>
</g>
<g>
</g>
<g>
</g>
<g>
</g>
<g>
</g>
<g>
</g>
<g>
</g>
<g>
</g>
</svg>
