<?xml version="1.0" encoding="iso-8859-1"?>
<!-- Generator: Adobe Illustrator 16.0.0, SVG Export Plug-In . SVG Version: 6.00 Build 0)  -->
<!DOCTYPE svg PUBLIC "-//W3C//DTD SVG 1.1//EN" "http://www.w3.org/Graphics/SVG/1.1/DTD/svg11.dtd">
<svg version="1.1" id="Capa_1" xmlns="http://www.w3.org/2000/svg" xmlns:xlink="http://www.w3.org/1999/xlink" x="0px" y="0px"
	 width="652.801px" height="652.801px" viewBox="0 0 652.801 652.801" style="enable-background:new 0 0 652.801 652.801;"
	 xml:space="preserve">
<g>
	<g id="_x31_0_35_">
		<g>
			<path d="M510,448.801h-40.8V489.6H510V448.801z M550.801,0H102C56.937,0,20.4,36.536,20.4,81.6v40.8h612V81.6
				C632.4,36.536,595.864,0,550.801,0z M20.4,571.199c0,45.064,36.537,81.602,81.6,81.602h448.8c45.063,0,81.6-36.537,81.6-81.602
				v-408h-612V571.199z M489.601,244.8c33.803,0,61.2,27.397,61.2,61.2s-27.397,61.199-61.2,61.199S428.4,339.803,428.4,306
				S455.798,244.8,489.601,244.8z M489.601,408c33.803,0,61.2,27.396,61.2,61.199s-27.397,61.201-61.2,61.201
				s-61.2-27.398-61.2-61.201S455.798,408,489.601,408z M326.4,244.8c33.803,0,61.2,27.397,61.2,61.2s-27.397,61.199-61.2,61.199
				S265.2,339.803,265.2,306S292.598,244.8,326.4,244.8z M326.4,408c33.803,0,61.2,27.396,61.2,61.199S360.203,530.4,326.4,530.4
				s-61.2-27.398-61.2-61.201S292.598,408,326.4,408z M163.2,244.8c33.803,0,61.2,27.397,61.2,61.2s-27.397,61.199-61.2,61.199
				S102,339.803,102,306S129.397,244.8,163.2,244.8z M163.2,408c33.803,0,61.2,27.396,61.2,61.199S197.003,530.4,163.2,530.4
				S102,503.002,102,469.199S129.397,408,163.2,408z M510,285.6h-40.8v40.8H510V285.6z M183.601,285.6h-40.8v40.8h40.8V285.6z
				 M183.601,448.801h-40.8V489.6h40.8V448.801z M346.801,448.801H306V489.6h40.8V448.801z M346.801,285.6H306v40.8h40.8V285.6z"/>
		</g>
	</g>
</g>
<g>
</g>
<g>
</g>
<g>
</g>
<g>
</g>
<g>
</g>
<g>
</g>
<g>
</g>
<g>
</g>
<g>
</g>
<g>
</g>
<g>
</g>
<g>
</g>
<g>
</g>
<g>
</g>
<g>
</g>
</svg>
