<?xml version="1.0" encoding="iso-8859-1"?>
<!-- Generator: Adobe Illustrator 16.0.0, SVG Export Plug-In . SVG Version: 6.00 Build 0)  -->
<!DOCTYPE svg PUBLIC "-//W3C//DTD SVG 1.1//EN" "http://www.w3.org/Graphics/SVG/1.1/DTD/svg11.dtd">
<svg version="1.1" id="Capa_1" xmlns="http://www.w3.org/2000/svg" xmlns:xlink="http://www.w3.org/1999/xlink" x="0px" y="0px"
	 width="612px" height="612px" viewBox="0 0 612 612" style="enable-background:new 0 0 612 612;" xml:space="preserve">
<g>
	<g id="_x34__28_">
		<g>
			<path d="M535.5,0h-459C34.253,0,0,34.253,0,76.5V153h612V76.5C612,34.253,577.747,0,535.5,0z M95.625,114.75
				c-10.557,0-19.125-8.568-19.125-19.125S85.068,76.5,95.625,76.5s19.125,8.568,19.125,19.125S106.182,114.75,95.625,114.75z
				 M172.125,114.75c-10.557,0-19.125-8.568-19.125-19.125S161.568,76.5,172.125,76.5s19.125,8.568,19.125,19.125
				S182.682,114.75,172.125,114.75z M248.625,114.75c-10.557,0-19.125-8.568-19.125-19.125S238.068,76.5,248.625,76.5
				s19.125,8.568,19.125,19.125S259.182,114.75,248.625,114.75z M0,535.5C0,577.747,34.253,612,76.5,612h459
				c42.247,0,76.5-34.253,76.5-76.5V191.25H0V535.5z"/>
		</g>
	</g>
</g>
<g>
</g>
<g>
</g>
<g>
</g>
<g>
</g>
<g>
</g>
<g>
</g>
<g>
</g>
<g>
</g>
<g>
</g>
<g>
</g>
<g>
</g>
<g>
</g>
<g>
</g>
<g>
</g>
<g>
</g>
</svg>
