<?xml version="1.0" encoding="iso-8859-1"?>
<!-- Generator: Adobe Illustrator 16.0.0, SVG Export Plug-In . SVG Version: 6.00 Build 0)  -->
<!DOCTYPE svg PUBLIC "-//W3C//DTD SVG 1.1//EN" "http://www.w3.org/Graphics/SVG/1.1/DTD/svg11.dtd">
<svg version="1.1" id="Capa_1" xmlns="http://www.w3.org/2000/svg" xmlns:xlink="http://www.w3.org/1999/xlink" x="0px" y="0px"
	 width="612.001px" height="612.001px" viewBox="0 0 612.001 612.001" style="enable-background:new 0 0 612.001 612.001;"
	 xml:space="preserve">
<g>
	<g id="_x31_0_27_">
		<g>
			<path d="M594.568,110c-10.316,11.56-27.441,26.321-51.988,48.748c-26.016,25.953-62.795,25.953-88.81,0
				c-26.015-25.954-26.015-62.672,0-88.626c23.956-23.895,49.705-52.254,49.298-52.355c-69.624-32.05-154.723-19.674-212.115,37.595
				c-52.273,52.172-67.197,127.301-45.199,192.807L24.526,468.907c-32.702,32.641-32.702,85.526,0,118.167s85.71,32.641,118.412,0
				l221.228-220.759c65.629,21.958,140.941,7.075,193.215-45.098C614.691,264.009,626.577,179.42,594.568,110z"/>
		</g>
	</g>
</g>
<g>
</g>
<g>
</g>
<g>
</g>
<g>
</g>
<g>
</g>
<g>
</g>
<g>
</g>
<g>
</g>
<g>
</g>
<g>
</g>
<g>
</g>
<g>
</g>
<g>
</g>
<g>
</g>
<g>
</g>
</svg>
